<mxfile host="Electron" modified="2024-04-15T16:09:55.791Z" agent="Mozilla/5.0 (Windows NT 10.0; Win64; x64) AppleWebKit/537.36 (KHTML, like Gecko) draw.io/23.0.2 Chrome/120.0.6099.109 Electron/28.1.0 Safari/537.36" etag="DZK-Gz85KRQ-00q9F2VI" version="23.0.2" type="device" pages="11">
  <diagram name="Sistema de Login" id="BFaPL6MfbSktfhOX8XUf">
    <mxGraphModel dx="1434" dy="836" grid="1" gridSize="10" guides="1" tooltips="1" connect="1" arrows="1" fold="1" page="1" pageScale="1" pageWidth="827" pageHeight="1169" math="0" shadow="0">
      <root>
        <mxCell id="0" />
        <mxCell id="1" parent="0" />
        <mxCell id="7C136dsoU0WxMWwfPiyB-10" value="" style="rounded=0;whiteSpace=wrap;html=1;" parent="1" vertex="1">
          <mxGeometry x="140" y="130" width="610" height="680" as="geometry" />
        </mxCell>
        <mxCell id="7C136dsoU0WxMWwfPiyB-2" style="rounded=0;orthogonalLoop=1;jettySize=auto;html=1;endArrow=none;endFill=0;" parent="1" source="zIrfHwOr_xQRp6xBc4M8-1" target="zIrfHwOr_xQRp6xBc4M8-6" edge="1">
          <mxGeometry relative="1" as="geometry" />
        </mxCell>
        <mxCell id="7C136dsoU0WxMWwfPiyB-4" style="rounded=0;orthogonalLoop=1;jettySize=auto;html=1;entryX=0;entryY=0.5;entryDx=0;entryDy=0;endArrow=none;endFill=0;" parent="1" source="zIrfHwOr_xQRp6xBc4M8-1" target="7C136dsoU0WxMWwfPiyB-3" edge="1">
          <mxGeometry relative="1" as="geometry" />
        </mxCell>
        <mxCell id="zIrfHwOr_xQRp6xBc4M8-1" value="Coordenador" style="shape=umlActor;verticalLabelPosition=bottom;verticalAlign=top;html=1;outlineConnect=0;" parent="1" vertex="1">
          <mxGeometry x="230" y="380" width="30" height="60" as="geometry" />
        </mxCell>
        <mxCell id="7C136dsoU0WxMWwfPiyB-5" style="rounded=0;orthogonalLoop=1;jettySize=auto;html=1;entryX=0;entryY=0.5;entryDx=0;entryDy=0;endArrow=none;endFill=0;" parent="1" source="zIrfHwOr_xQRp6xBc4M8-2" target="zIrfHwOr_xQRp6xBc4M8-6" edge="1">
          <mxGeometry relative="1" as="geometry" />
        </mxCell>
        <mxCell id="zIrfHwOr_xQRp6xBc4M8-2" value="Formador" style="shape=umlActor;verticalLabelPosition=bottom;verticalAlign=top;html=1;outlineConnect=0;" parent="1" vertex="1">
          <mxGeometry x="230" y="540" width="30" height="60" as="geometry" />
        </mxCell>
        <mxCell id="7C136dsoU0WxMWwfPiyB-6" style="rounded=0;orthogonalLoop=1;jettySize=auto;html=1;entryX=0;entryY=0.5;entryDx=0;entryDy=0;endArrow=none;endFill=0;" parent="1" source="zIrfHwOr_xQRp6xBc4M8-5" target="zIrfHwOr_xQRp6xBc4M8-6" edge="1">
          <mxGeometry relative="1" as="geometry">
            <mxPoint x="480" y="720" as="targetPoint" />
          </mxGeometry>
        </mxCell>
        <mxCell id="zIrfHwOr_xQRp6xBc4M8-5" value="Formando" style="shape=umlActor;verticalLabelPosition=bottom;verticalAlign=top;html=1;outlineConnect=0;" parent="1" vertex="1">
          <mxGeometry x="230" y="690" width="30" height="60" as="geometry" />
        </mxCell>
        <mxCell id="zIrfHwOr_xQRp6xBc4M8-6" value="Login" style="ellipse;whiteSpace=wrap;html=1;" parent="1" vertex="1">
          <mxGeometry x="485" y="530" width="100" height="70" as="geometry" />
        </mxCell>
        <mxCell id="zIrfHwOr_xQRp6xBc4M8-7" value="Criar conta&lt;br&gt;(Coordenador)" style="ellipse;whiteSpace=wrap;html=1;" parent="1" vertex="1">
          <mxGeometry x="470" y="210" width="115" height="80" as="geometry" />
        </mxCell>
        <mxCell id="7C136dsoU0WxMWwfPiyB-1" style="rounded=0;orthogonalLoop=1;jettySize=auto;html=1;endArrow=none;endFill=0;strokeColor=#FFFFFF;" parent="1" target="zIrfHwOr_xQRp6xBc4M8-7" edge="1">
          <mxGeometry relative="1" as="geometry">
            <mxPoint x="260" y="263.12914270912233" as="sourcePoint" />
          </mxGeometry>
        </mxCell>
        <mxCell id="7C136dsoU0WxMWwfPiyB-3" value="Criar conta&lt;br&gt;Formando" style="ellipse;whiteSpace=wrap;html=1;" parent="1" vertex="1">
          <mxGeometry x="475" y="420" width="115" height="80" as="geometry" />
        </mxCell>
        <mxCell id="7C136dsoU0WxMWwfPiyB-9" style="edgeStyle=orthogonalEdgeStyle;rounded=0;orthogonalLoop=1;jettySize=auto;html=1;entryX=0.5;entryY=0;entryDx=0;entryDy=0;entryPerimeter=0;endArrow=none;endFill=0;" parent="1" target="zIrfHwOr_xQRp6xBc4M8-1" edge="1">
          <mxGeometry relative="1" as="geometry">
            <mxPoint x="245" y="290" as="sourcePoint" />
          </mxGeometry>
        </mxCell>
        <mxCell id="7C136dsoU0WxMWwfPiyB-11" value="Sistema de Login" style="text;html=1;align=center;verticalAlign=middle;whiteSpace=wrap;rounded=0;" parent="1" vertex="1">
          <mxGeometry x="600" y="140" width="130" height="30" as="geometry" />
        </mxCell>
        <mxCell id="Kh07JDiY5u56do4v0kwe-1" value="Administrador" style="shape=umlActor;verticalLabelPosition=bottom;verticalAlign=top;html=1;outlineConnect=0;" parent="1" vertex="1">
          <mxGeometry x="228" y="210" width="32" height="63" as="geometry" />
        </mxCell>
        <mxCell id="Kh07JDiY5u56do4v0kwe-4" style="rounded=0;orthogonalLoop=1;jettySize=auto;html=1;entryX=0.043;entryY=0.675;entryDx=0;entryDy=0;endArrow=none;endFill=0;entryPerimeter=0;" parent="1" source="Kh07JDiY5u56do4v0kwe-1" target="zIrfHwOr_xQRp6xBc4M8-7" edge="1">
          <mxGeometry relative="1" as="geometry">
            <mxPoint x="260" y="290" as="sourcePoint" />
            <mxPoint x="475" y="318" as="targetPoint" />
          </mxGeometry>
        </mxCell>
        <mxCell id="e1tbzK36eUW8evrMPOUV-2" value="Criar conta Formador" style="ellipse;whiteSpace=wrap;html=1;" parent="1" vertex="1">
          <mxGeometry x="480" y="320" width="105" height="70" as="geometry" />
        </mxCell>
        <mxCell id="e1tbzK36eUW8evrMPOUV-3" style="rounded=0;orthogonalLoop=1;jettySize=auto;html=1;entryX=0.048;entryY=0.743;entryDx=0;entryDy=0;endArrow=none;endFill=0;entryPerimeter=0;exitX=1;exitY=0.3333333333333333;exitDx=0;exitDy=0;exitPerimeter=0;" parent="1" source="zIrfHwOr_xQRp6xBc4M8-1" target="e1tbzK36eUW8evrMPOUV-2" edge="1">
          <mxGeometry relative="1" as="geometry">
            <mxPoint x="260" y="420" as="sourcePoint" />
            <mxPoint x="485" y="450" as="targetPoint" />
          </mxGeometry>
        </mxCell>
      </root>
    </mxGraphModel>
  </diagram>
  <diagram id="jeXx3I2oX2gwyK3jYZ02" name="Diag Atividade - Sistema de login">
    <mxGraphModel dx="1434" dy="836" grid="1" gridSize="10" guides="1" tooltips="1" connect="1" arrows="1" fold="1" page="1" pageScale="1" pageWidth="827" pageHeight="1169" math="0" shadow="0">
      <root>
        <mxCell id="0" />
        <mxCell id="1" parent="0" />
        <mxCell id="C7ZxCmDEK-G7-0OAoRCc-1" value="" style="ellipse;html=1;shape=startState;fillColor=#000000;strokeColor=#ff0000;" parent="1" vertex="1">
          <mxGeometry x="110" y="60" width="30" height="30" as="geometry" />
        </mxCell>
        <mxCell id="C7ZxCmDEK-G7-0OAoRCc-2" value="" style="edgeStyle=orthogonalEdgeStyle;html=1;verticalAlign=bottom;endArrow=open;endSize=8;strokeColor=#ff0000;rounded=0;" parent="1" source="C7ZxCmDEK-G7-0OAoRCc-1" edge="1">
          <mxGeometry relative="1" as="geometry">
            <mxPoint x="125" y="140" as="targetPoint" />
          </mxGeometry>
        </mxCell>
        <mxCell id="C7ZxCmDEK-G7-0OAoRCc-3" value="Formador entra com login e password" style="rounded=1;whiteSpace=wrap;html=1;arcSize=40;fontColor=#000000;fillColor=#ffffc0;strokeColor=#ff0000;" parent="1" vertex="1">
          <mxGeometry x="57" y="140" width="136" height="50" as="geometry" />
        </mxCell>
        <mxCell id="C7ZxCmDEK-G7-0OAoRCc-4" value="" style="edgeStyle=orthogonalEdgeStyle;html=1;verticalAlign=bottom;endArrow=open;endSize=8;strokeColor=#ff0000;rounded=0;" parent="1" edge="1">
          <mxGeometry relative="1" as="geometry">
            <mxPoint x="124.75999999999999" y="240" as="targetPoint" />
            <mxPoint x="124.75999999999999" y="190" as="sourcePoint" />
          </mxGeometry>
        </mxCell>
        <mxCell id="C7ZxCmDEK-G7-0OAoRCc-5" value="" style="rhombus;whiteSpace=wrap;html=1;fontColor=#000000;fillColor=#ffffc0;strokeColor=#ff0000;" parent="1" vertex="1">
          <mxGeometry x="90" y="240" width="70" height="30" as="geometry" />
        </mxCell>
        <mxCell id="C7ZxCmDEK-G7-0OAoRCc-6" value="[se login estiver errado]" style="edgeStyle=orthogonalEdgeStyle;html=1;align=left;verticalAlign=bottom;endArrow=open;endSize=8;strokeColor=#ff0000;rounded=0;exitX=1;exitY=0.5;exitDx=0;exitDy=0;entryX=0;entryY=0.5;entryDx=0;entryDy=0;" parent="1" source="C7ZxCmDEK-G7-0OAoRCc-5" target="C7ZxCmDEK-G7-0OAoRCc-8" edge="1">
          <mxGeometry x="-1" y="23" relative="1" as="geometry">
            <mxPoint x="311" y="279.5" as="targetPoint" />
            <mxPoint x="211" y="279.5" as="sourcePoint" />
            <mxPoint x="-21" y="14" as="offset" />
          </mxGeometry>
        </mxCell>
        <mxCell id="C7ZxCmDEK-G7-0OAoRCc-7" value="yes" style="edgeStyle=orthogonalEdgeStyle;html=1;align=left;verticalAlign=top;endArrow=open;endSize=8;strokeColor=#ff0000;rounded=0;exitX=0.5;exitY=1;exitDx=0;exitDy=0;" parent="1" source="C7ZxCmDEK-G7-0OAoRCc-5" edge="1">
          <mxGeometry x="-1" relative="1" as="geometry">
            <mxPoint x="125" y="380" as="targetPoint" />
            <mxPoint x="125" y="320" as="sourcePoint" />
          </mxGeometry>
        </mxCell>
        <mxCell id="C7ZxCmDEK-G7-0OAoRCc-8" value="login ou senha incorretos" style="rounded=1;whiteSpace=wrap;html=1;arcSize=40;fontColor=#000000;fillColor=#ffffc0;strokeColor=#ff0000;" parent="1" vertex="1">
          <mxGeometry x="270" y="235" width="120" height="40" as="geometry" />
        </mxCell>
        <mxCell id="C7ZxCmDEK-G7-0OAoRCc-9" value="" style="edgeStyle=orthogonalEdgeStyle;html=1;verticalAlign=bottom;endArrow=open;endSize=8;strokeColor=#ff0000;rounded=0;exitX=0.549;exitY=-0.007;exitDx=0;exitDy=0;exitPerimeter=0;entryX=1;entryY=0.5;entryDx=0;entryDy=0;" parent="1" source="C7ZxCmDEK-G7-0OAoRCc-8" target="C7ZxCmDEK-G7-0OAoRCc-3" edge="1">
          <mxGeometry relative="1" as="geometry">
            <mxPoint x="210" y="210" as="targetPoint" />
            <mxPoint x="210" y="160" as="sourcePoint" />
          </mxGeometry>
        </mxCell>
        <mxCell id="C7ZxCmDEK-G7-0OAoRCc-10" value="Login feito com sucesso" style="rounded=1;whiteSpace=wrap;html=1;arcSize=40;fontColor=#000000;fillColor=#ffffc0;strokeColor=#ff0000;" parent="1" vertex="1">
          <mxGeometry x="65" y="380" width="120" height="40" as="geometry" />
        </mxCell>
        <mxCell id="C7ZxCmDEK-G7-0OAoRCc-11" value="" style="edgeStyle=orthogonalEdgeStyle;html=1;verticalAlign=bottom;endArrow=open;endSize=8;strokeColor=#ff0000;rounded=0;" parent="1" source="C7ZxCmDEK-G7-0OAoRCc-10" edge="1">
          <mxGeometry relative="1" as="geometry">
            <mxPoint x="125" y="480" as="targetPoint" />
          </mxGeometry>
        </mxCell>
        <mxCell id="C7ZxCmDEK-G7-0OAoRCc-12" value="" style="ellipse;html=1;shape=endState;fillColor=#000000;strokeColor=#ff0000;" parent="1" vertex="1">
          <mxGeometry x="110" y="480" width="30" height="30" as="geometry" />
        </mxCell>
        <mxCell id="nHPZBa8oLTbW_62xmR-C-15" value="" style="ellipse;html=1;shape=startState;fillColor=#000000;strokeColor=#ff0000;" parent="1" vertex="1">
          <mxGeometry x="483" y="50" width="30" height="30" as="geometry" />
        </mxCell>
        <mxCell id="nHPZBa8oLTbW_62xmR-C-16" value="" style="edgeStyle=orthogonalEdgeStyle;html=1;verticalAlign=bottom;endArrow=open;endSize=8;strokeColor=#ff0000;rounded=0;" parent="1" source="nHPZBa8oLTbW_62xmR-C-15" edge="1">
          <mxGeometry relative="1" as="geometry">
            <mxPoint x="498" y="130" as="targetPoint" />
          </mxGeometry>
        </mxCell>
        <mxCell id="nHPZBa8oLTbW_62xmR-C-17" value="Formando entra com login e password" style="rounded=1;whiteSpace=wrap;html=1;arcSize=40;fontColor=#000000;fillColor=#ffffc0;strokeColor=#ff0000;" parent="1" vertex="1">
          <mxGeometry x="430" y="130" width="136" height="50" as="geometry" />
        </mxCell>
        <mxCell id="nHPZBa8oLTbW_62xmR-C-18" value="" style="edgeStyle=orthogonalEdgeStyle;html=1;verticalAlign=bottom;endArrow=open;endSize=8;strokeColor=#ff0000;rounded=0;" parent="1" edge="1">
          <mxGeometry relative="1" as="geometry">
            <mxPoint x="497.76" y="230" as="targetPoint" />
            <mxPoint x="497.76" y="180" as="sourcePoint" />
          </mxGeometry>
        </mxCell>
        <mxCell id="nHPZBa8oLTbW_62xmR-C-19" value="" style="rhombus;whiteSpace=wrap;html=1;fontColor=#000000;fillColor=#ffffc0;strokeColor=#ff0000;" parent="1" vertex="1">
          <mxGeometry x="463" y="230" width="70" height="30" as="geometry" />
        </mxCell>
        <mxCell id="nHPZBa8oLTbW_62xmR-C-20" value="[se login estiver errado]" style="edgeStyle=orthogonalEdgeStyle;html=1;align=left;verticalAlign=bottom;endArrow=open;endSize=8;strokeColor=#ff0000;rounded=0;exitX=1;exitY=0.5;exitDx=0;exitDy=0;entryX=0;entryY=0.5;entryDx=0;entryDy=0;" parent="1" source="nHPZBa8oLTbW_62xmR-C-19" target="nHPZBa8oLTbW_62xmR-C-22" edge="1">
          <mxGeometry x="-1" y="23" relative="1" as="geometry">
            <mxPoint x="684" y="269.5" as="targetPoint" />
            <mxPoint x="584" y="269.5" as="sourcePoint" />
            <mxPoint x="-21" y="14" as="offset" />
          </mxGeometry>
        </mxCell>
        <mxCell id="nHPZBa8oLTbW_62xmR-C-21" value="yes" style="edgeStyle=orthogonalEdgeStyle;html=1;align=left;verticalAlign=top;endArrow=open;endSize=8;strokeColor=#ff0000;rounded=0;exitX=0.5;exitY=1;exitDx=0;exitDy=0;" parent="1" source="nHPZBa8oLTbW_62xmR-C-19" edge="1">
          <mxGeometry x="-1" relative="1" as="geometry">
            <mxPoint x="498" y="370" as="targetPoint" />
            <mxPoint x="498" y="310" as="sourcePoint" />
          </mxGeometry>
        </mxCell>
        <mxCell id="nHPZBa8oLTbW_62xmR-C-22" value="login ou senha incorretos" style="rounded=1;whiteSpace=wrap;html=1;arcSize=40;fontColor=#000000;fillColor=#ffffc0;strokeColor=#ff0000;" parent="1" vertex="1">
          <mxGeometry x="643" y="225" width="120" height="40" as="geometry" />
        </mxCell>
        <mxCell id="nHPZBa8oLTbW_62xmR-C-23" value="" style="edgeStyle=orthogonalEdgeStyle;html=1;verticalAlign=bottom;endArrow=open;endSize=8;strokeColor=#ff0000;rounded=0;exitX=0.549;exitY=-0.007;exitDx=0;exitDy=0;exitPerimeter=0;entryX=1;entryY=0.5;entryDx=0;entryDy=0;" parent="1" source="nHPZBa8oLTbW_62xmR-C-22" target="nHPZBa8oLTbW_62xmR-C-17" edge="1">
          <mxGeometry relative="1" as="geometry">
            <mxPoint x="583" y="200" as="targetPoint" />
            <mxPoint x="583" y="150" as="sourcePoint" />
          </mxGeometry>
        </mxCell>
        <mxCell id="nHPZBa8oLTbW_62xmR-C-24" value="Login feito com sucesso" style="rounded=1;whiteSpace=wrap;html=1;arcSize=40;fontColor=#000000;fillColor=#ffffc0;strokeColor=#ff0000;" parent="1" vertex="1">
          <mxGeometry x="438" y="370" width="120" height="40" as="geometry" />
        </mxCell>
        <mxCell id="nHPZBa8oLTbW_62xmR-C-25" value="" style="edgeStyle=orthogonalEdgeStyle;html=1;verticalAlign=bottom;endArrow=open;endSize=8;strokeColor=#ff0000;rounded=0;" parent="1" source="nHPZBa8oLTbW_62xmR-C-24" edge="1">
          <mxGeometry relative="1" as="geometry">
            <mxPoint x="498" y="470" as="targetPoint" />
          </mxGeometry>
        </mxCell>
        <mxCell id="nHPZBa8oLTbW_62xmR-C-26" value="" style="ellipse;html=1;shape=endState;fillColor=#000000;strokeColor=#ff0000;" parent="1" vertex="1">
          <mxGeometry x="483" y="470" width="30" height="30" as="geometry" />
        </mxCell>
      </root>
    </mxGraphModel>
  </diagram>
  <diagram id="HPEf4-DSVzTo9lASLoPN" name="Sistema para criar tarefas">
    <mxGraphModel dx="767" dy="827" grid="1" gridSize="10" guides="1" tooltips="1" connect="1" arrows="1" fold="1" page="1" pageScale="1" pageWidth="827" pageHeight="1169" math="0" shadow="0">
      <root>
        <mxCell id="0" />
        <mxCell id="1" parent="0" />
        <mxCell id="Rm7ggx_6BaIDPETpRbhV-1" value="" style="rounded=0;whiteSpace=wrap;html=1;" parent="1" vertex="1">
          <mxGeometry x="109" y="170" width="821" height="870" as="geometry" />
        </mxCell>
        <mxCell id="GIbLXRP4BGjuROqlRJDy-2" style="edgeStyle=orthogonalEdgeStyle;rounded=0;orthogonalLoop=1;jettySize=auto;html=1;endArrow=none;endFill=0;" parent="1" source="Rm7ggx_6BaIDPETpRbhV-4" target="Rm7ggx_6BaIDPETpRbhV-6" edge="1">
          <mxGeometry relative="1" as="geometry" />
        </mxCell>
        <mxCell id="Rm7ggx_6BaIDPETpRbhV-4" value="Coordenador" style="shape=umlActor;verticalLabelPosition=bottom;verticalAlign=top;html=1;outlineConnect=0;" parent="1" vertex="1">
          <mxGeometry x="220" y="320" width="30" height="60" as="geometry" />
        </mxCell>
        <mxCell id="Rm7ggx_6BaIDPETpRbhV-5" style="rounded=0;orthogonalLoop=1;jettySize=auto;html=1;entryX=0;entryY=0.5;entryDx=0;entryDy=0;endArrow=none;endFill=0;" parent="1" source="Rm7ggx_6BaIDPETpRbhV-6" target="Rm7ggx_6BaIDPETpRbhV-9" edge="1">
          <mxGeometry relative="1" as="geometry" />
        </mxCell>
        <mxCell id="Rm7ggx_6BaIDPETpRbhV-22" style="rounded=0;orthogonalLoop=1;jettySize=auto;html=1;entryX=0.04;entryY=0.655;entryDx=0;entryDy=0;endArrow=none;endFill=0;entryPerimeter=0;" parent="1" source="Rm7ggx_6BaIDPETpRbhV-6" target="Rm7ggx_6BaIDPETpRbhV-13" edge="1">
          <mxGeometry relative="1" as="geometry" />
        </mxCell>
        <mxCell id="GIbLXRP4BGjuROqlRJDy-1" style="rounded=0;orthogonalLoop=1;jettySize=auto;html=1;entryX=0;entryY=1;entryDx=0;entryDy=0;endArrow=none;endFill=0;" parent="1" source="Rm7ggx_6BaIDPETpRbhV-6" target="Rm7ggx_6BaIDPETpRbhV-27" edge="1">
          <mxGeometry relative="1" as="geometry" />
        </mxCell>
        <mxCell id="_o4etQ47He1Q-aGUU1Nc-5" style="rounded=0;orthogonalLoop=1;jettySize=auto;html=1;entryX=0;entryY=0.5;entryDx=0;entryDy=0;endArrow=none;endFill=0;" parent="1" source="Rm7ggx_6BaIDPETpRbhV-6" target="_o4etQ47He1Q-aGUU1Nc-4" edge="1">
          <mxGeometry relative="1" as="geometry" />
        </mxCell>
        <mxCell id="Rm7ggx_6BaIDPETpRbhV-6" value="Formador" style="shape=umlActor;verticalLabelPosition=bottom;verticalAlign=top;html=1;outlineConnect=0;" parent="1" vertex="1">
          <mxGeometry x="220" y="510" width="30" height="60" as="geometry" />
        </mxCell>
        <mxCell id="Rm7ggx_6BaIDPETpRbhV-7" style="rounded=0;orthogonalLoop=1;jettySize=auto;html=1;endArrow=none;endFill=0;" parent="1" source="Rm7ggx_6BaIDPETpRbhV-8" target="Rm7ggx_6BaIDPETpRbhV-9" edge="1">
          <mxGeometry relative="1" as="geometry" />
        </mxCell>
        <mxCell id="GIbLXRP4BGjuROqlRJDy-4" style="rounded=0;orthogonalLoop=1;jettySize=auto;html=1;entryX=0;entryY=0.5;entryDx=0;entryDy=0;endArrow=none;endFill=0;" parent="1" source="Rm7ggx_6BaIDPETpRbhV-8" target="GIbLXRP4BGjuROqlRJDy-3" edge="1">
          <mxGeometry relative="1" as="geometry" />
        </mxCell>
        <mxCell id="_o4etQ47He1Q-aGUU1Nc-3" style="rounded=0;orthogonalLoop=1;jettySize=auto;html=1;entryX=0;entryY=0.5;entryDx=0;entryDy=0;endArrow=none;endFill=0;" parent="1" source="Rm7ggx_6BaIDPETpRbhV-8" target="_o4etQ47He1Q-aGUU1Nc-2" edge="1">
          <mxGeometry relative="1" as="geometry" />
        </mxCell>
        <mxCell id="_o4etQ47He1Q-aGUU1Nc-7" style="rounded=0;orthogonalLoop=1;jettySize=auto;html=1;entryX=0;entryY=0.5;entryDx=0;entryDy=0;endArrow=none;endFill=0;" parent="1" source="Rm7ggx_6BaIDPETpRbhV-8" target="_o4etQ47He1Q-aGUU1Nc-6" edge="1">
          <mxGeometry relative="1" as="geometry" />
        </mxCell>
        <mxCell id="Rm7ggx_6BaIDPETpRbhV-8" value="Formando" style="shape=umlActor;verticalLabelPosition=bottom;verticalAlign=top;html=1;outlineConnect=0;" parent="1" vertex="1">
          <mxGeometry x="220" y="660" width="30" height="60" as="geometry" />
        </mxCell>
        <mxCell id="Rm7ggx_6BaIDPETpRbhV-9" value="Consultar tarefa" style="ellipse;whiteSpace=wrap;html=1;" parent="1" vertex="1">
          <mxGeometry x="461" y="480" width="105" height="70" as="geometry" />
        </mxCell>
        <mxCell id="Rm7ggx_6BaIDPETpRbhV-13" value="Criar tarefa" style="ellipse;whiteSpace=wrap;html=1;" parent="1" vertex="1">
          <mxGeometry x="456" y="360" width="115" height="80" as="geometry" />
        </mxCell>
        <mxCell id="Rm7ggx_6BaIDPETpRbhV-15" value="Sistema de Tarefas" style="text;html=1;align=center;verticalAlign=middle;whiteSpace=wrap;rounded=0;" parent="1" vertex="1">
          <mxGeometry x="760" y="180" width="159" height="30" as="geometry" />
        </mxCell>
        <mxCell id="Rm7ggx_6BaIDPETpRbhV-17" value="Anexar: documentos, ficheiros, links..." style="ellipse;whiteSpace=wrap;html=1;" parent="1" vertex="1">
          <mxGeometry x="712" y="470" width="133" height="80" as="geometry" />
        </mxCell>
        <mxCell id="Rm7ggx_6BaIDPETpRbhV-21" value="Extends" style="endArrow=open;endSize=12;dashed=1;html=1;rounded=0;entryX=0.993;entryY=0.656;entryDx=0;entryDy=0;exitX=0;exitY=0;exitDx=0;exitDy=0;entryPerimeter=0;" parent="1" source="Rm7ggx_6BaIDPETpRbhV-17" target="Rm7ggx_6BaIDPETpRbhV-13" edge="1">
          <mxGeometry width="160" relative="1" as="geometry">
            <mxPoint x="437.5" y="460" as="sourcePoint" />
            <mxPoint x="597.5" y="460" as="targetPoint" />
          </mxGeometry>
        </mxCell>
        <mxCell id="Rm7ggx_6BaIDPETpRbhV-23" value="Atribuir prazo" style="ellipse;whiteSpace=wrap;html=1;" parent="1" vertex="1">
          <mxGeometry x="712" y="320" width="105" height="70" as="geometry" />
        </mxCell>
        <mxCell id="Rm7ggx_6BaIDPETpRbhV-24" value="Include" style="endArrow=open;endSize=12;dashed=1;html=1;rounded=0;entryX=0;entryY=0.5;entryDx=0;entryDy=0;exitX=1.007;exitY=0.427;exitDx=0;exitDy=0;exitPerimeter=0;" parent="1" source="Rm7ggx_6BaIDPETpRbhV-13" target="Rm7ggx_6BaIDPETpRbhV-23" edge="1">
          <mxGeometry width="160" relative="1" as="geometry">
            <mxPoint x="711" y="313" as="sourcePoint" />
            <mxPoint x="581" y="360" as="targetPoint" />
          </mxGeometry>
        </mxCell>
        <mxCell id="Rm7ggx_6BaIDPETpRbhV-27" value="Selecionar&lt;br&gt;UFCD" style="ellipse;whiteSpace=wrap;html=1;" parent="1" vertex="1">
          <mxGeometry x="456" y="250" width="115" height="80" as="geometry" />
        </mxCell>
        <mxCell id="GIbLXRP4BGjuROqlRJDy-3" value="Submeter tarefa" style="ellipse;whiteSpace=wrap;html=1;" parent="1" vertex="1">
          <mxGeometry x="461" y="600" width="105" height="70" as="geometry" />
        </mxCell>
        <mxCell id="_o4etQ47He1Q-aGUU1Nc-1" value="Extends" style="endArrow=open;endSize=12;dashed=1;html=1;rounded=0;entryX=1;entryY=0.5;entryDx=0;entryDy=0;exitX=0;exitY=1;exitDx=0;exitDy=0;" parent="1" source="Rm7ggx_6BaIDPETpRbhV-17" target="GIbLXRP4BGjuROqlRJDy-3" edge="1">
          <mxGeometry width="160" relative="1" as="geometry">
            <mxPoint x="712" y="598" as="sourcePoint" />
            <mxPoint x="582" y="500" as="targetPoint" />
          </mxGeometry>
        </mxCell>
        <mxCell id="_o4etQ47He1Q-aGUU1Nc-2" value="Entregar tarefa" style="ellipse;whiteSpace=wrap;html=1;" parent="1" vertex="1">
          <mxGeometry x="461" y="710" width="105" height="70" as="geometry" />
        </mxCell>
        <mxCell id="_o4etQ47He1Q-aGUU1Nc-4" value="Atribuir nota" style="ellipse;whiteSpace=wrap;html=1;" parent="1" vertex="1">
          <mxGeometry x="461" y="820" width="105" height="70" as="geometry" />
        </mxCell>
        <mxCell id="_o4etQ47He1Q-aGUU1Nc-6" value="Consultar nota" style="ellipse;whiteSpace=wrap;html=1;" parent="1" vertex="1">
          <mxGeometry x="461" y="920" width="105" height="70" as="geometry" />
        </mxCell>
      </root>
    </mxGraphModel>
  </diagram>
  <diagram id="W6DCFhZ8w4C9kC2Nr9D4" name="Diag Atividade - Sistema para criar tarefas">
    <mxGraphModel dx="767" dy="827" grid="1" gridSize="10" guides="1" tooltips="1" connect="1" arrows="1" fold="1" page="1" pageScale="1" pageWidth="827" pageHeight="1169" math="0" shadow="0">
      <root>
        <mxCell id="0" />
        <mxCell id="1" parent="0" />
        <mxCell id="1pz_eAjYBSW0tLDmS2cB-1" value="" style="endArrow=none;html=1;rounded=0;" parent="1" edge="1">
          <mxGeometry width="50" height="50" relative="1" as="geometry">
            <mxPoint x="420" y="1160" as="sourcePoint" />
            <mxPoint x="414" as="targetPoint" />
          </mxGeometry>
        </mxCell>
        <mxCell id="1pz_eAjYBSW0tLDmS2cB-2" value="Formador" style="text;strokeColor=none;fillColor=none;align=left;verticalAlign=middle;spacingLeft=4;spacingRight=4;overflow=hidden;points=[[0,0.5],[1,0.5]];portConstraint=eastwest;rotatable=0;whiteSpace=wrap;html=1;" parent="1" vertex="1">
          <mxGeometry width="80" height="30" as="geometry" />
        </mxCell>
        <mxCell id="1pz_eAjYBSW0tLDmS2cB-3" value="Formando" style="text;strokeColor=none;fillColor=none;align=left;verticalAlign=middle;spacingLeft=4;spacingRight=4;overflow=hidden;points=[[0,0.5],[1,0.5]];portConstraint=eastwest;rotatable=0;whiteSpace=wrap;html=1;" parent="1" vertex="1">
          <mxGeometry x="414" width="80" height="30" as="geometry" />
        </mxCell>
        <mxCell id="1pz_eAjYBSW0tLDmS2cB-4" value="" style="ellipse;html=1;shape=startState;fillColor=#000000;strokeColor=#ff0000;" parent="1" vertex="1">
          <mxGeometry x="100" y="40" width="30" height="30" as="geometry" />
        </mxCell>
        <mxCell id="1pz_eAjYBSW0tLDmS2cB-5" value="" style="edgeStyle=orthogonalEdgeStyle;html=1;verticalAlign=bottom;endArrow=open;endSize=8;strokeColor=#ff0000;rounded=0;" parent="1" source="1pz_eAjYBSW0tLDmS2cB-4" edge="1">
          <mxGeometry relative="1" as="geometry">
            <mxPoint x="115" y="110" as="targetPoint" />
          </mxGeometry>
        </mxCell>
        <mxCell id="1pz_eAjYBSW0tLDmS2cB-6" value="Selecionar turma" style="rounded=1;whiteSpace=wrap;html=1;arcSize=40;fontColor=#000000;fillColor=#ffffc0;strokeColor=#ff0000;" parent="1" vertex="1">
          <mxGeometry x="55" y="110" width="120" height="40" as="geometry" />
        </mxCell>
        <mxCell id="1pz_eAjYBSW0tLDmS2cB-7" value="" style="edgeStyle=orthogonalEdgeStyle;html=1;verticalAlign=bottom;endArrow=open;endSize=8;strokeColor=#ff0000;rounded=0;" parent="1" source="1pz_eAjYBSW0tLDmS2cB-6" edge="1">
          <mxGeometry relative="1" as="geometry">
            <mxPoint x="115" y="180" as="targetPoint" />
          </mxGeometry>
        </mxCell>
        <mxCell id="1pz_eAjYBSW0tLDmS2cB-8" value="Selecionar ufcd" style="rounded=1;whiteSpace=wrap;html=1;arcSize=40;fontColor=#000000;fillColor=#ffffc0;strokeColor=#ff0000;" parent="1" vertex="1">
          <mxGeometry x="55" y="180" width="120" height="40" as="geometry" />
        </mxCell>
        <mxCell id="1pz_eAjYBSW0tLDmS2cB-9" value="" style="edgeStyle=orthogonalEdgeStyle;html=1;verticalAlign=bottom;endArrow=open;endSize=8;strokeColor=#ff0000;rounded=0;" parent="1" edge="1">
          <mxGeometry relative="1" as="geometry">
            <mxPoint x="114.58" y="250" as="targetPoint" />
            <mxPoint x="114.58" y="220" as="sourcePoint" />
          </mxGeometry>
        </mxCell>
        <mxCell id="1pz_eAjYBSW0tLDmS2cB-10" value="" style="rhombus;whiteSpace=wrap;html=1;fontColor=#000000;fillColor=#ffffc0;strokeColor=#ff0000;" parent="1" vertex="1">
          <mxGeometry x="70" y="250" width="90" height="40" as="geometry" />
        </mxCell>
        <mxCell id="1pz_eAjYBSW0tLDmS2cB-11" value="[se ufcd não estiver em andamento]" style="edgeStyle=orthogonalEdgeStyle;html=1;align=left;verticalAlign=bottom;endArrow=open;endSize=8;strokeColor=#ff0000;rounded=0;entryX=1;entryY=0.5;entryDx=0;entryDy=0;" parent="1" source="1pz_eAjYBSW0tLDmS2cB-10" target="1pz_eAjYBSW0tLDmS2cB-8" edge="1">
          <mxGeometry x="0.1852" y="-10" relative="1" as="geometry">
            <mxPoint x="250" y="270" as="targetPoint" />
            <Array as="points">
              <mxPoint x="200" y="270" />
              <mxPoint x="200" y="200" />
            </Array>
            <mxPoint as="offset" />
          </mxGeometry>
        </mxCell>
        <mxCell id="1pz_eAjYBSW0tLDmS2cB-12" value="" style="edgeStyle=orthogonalEdgeStyle;html=1;verticalAlign=bottom;endArrow=open;endSize=8;strokeColor=#ff0000;rounded=0;" parent="1" edge="1">
          <mxGeometry relative="1" as="geometry">
            <mxPoint x="114.58" y="320" as="targetPoint" />
            <mxPoint x="114.58" y="290" as="sourcePoint" />
          </mxGeometry>
        </mxCell>
        <mxCell id="1pz_eAjYBSW0tLDmS2cB-13" value="&lt;span style=&quot;font-size: 11px; text-align: left; text-wrap: nowrap; background-color: rgb(255, 255, 255);&quot;&gt;[se ufcd estiver em andamento]&lt;/span&gt;" style="text;html=1;align=center;verticalAlign=middle;whiteSpace=wrap;rounded=0;" parent="1" vertex="1">
          <mxGeometry x="120" y="280" width="160" height="30" as="geometry" />
        </mxCell>
        <mxCell id="1pz_eAjYBSW0tLDmS2cB-14" value="Criar tarefa" style="rounded=1;whiteSpace=wrap;html=1;arcSize=40;fontColor=#000000;fillColor=#ffffc0;strokeColor=#ff0000;" parent="1" vertex="1">
          <mxGeometry x="52.5" y="430" width="120" height="40" as="geometry" />
        </mxCell>
        <mxCell id="1pz_eAjYBSW0tLDmS2cB-15" value="" style="edgeStyle=orthogonalEdgeStyle;html=1;verticalAlign=bottom;endArrow=open;endSize=8;strokeColor=#ff0000;rounded=0;" parent="1" source="1pz_eAjYBSW0tLDmS2cB-14" edge="1">
          <mxGeometry relative="1" as="geometry">
            <mxPoint x="112.5" y="530" as="targetPoint" />
          </mxGeometry>
        </mxCell>
        <mxCell id="1pz_eAjYBSW0tLDmS2cB-16" value="Atribuir prazo e anexar (se necessário)" style="rounded=1;whiteSpace=wrap;html=1;arcSize=40;fontColor=#000000;fillColor=#ffffc0;strokeColor=#ff0000;" parent="1" vertex="1">
          <mxGeometry x="52.5" y="530" width="125" height="40" as="geometry" />
        </mxCell>
        <mxCell id="1pz_eAjYBSW0tLDmS2cB-17" value="" style="edgeStyle=orthogonalEdgeStyle;html=1;verticalAlign=bottom;endArrow=open;endSize=8;strokeColor=#ff0000;rounded=0;" parent="1" edge="1">
          <mxGeometry relative="1" as="geometry">
            <mxPoint x="112.08" y="630" as="targetPoint" />
            <mxPoint x="112.08" y="570" as="sourcePoint" />
          </mxGeometry>
        </mxCell>
        <mxCell id="1pz_eAjYBSW0tLDmS2cB-18" value="" style="ellipse;html=1;shape=endState;fillColor=#000000;strokeColor=#ff0000;" parent="1" vertex="1">
          <mxGeometry x="97.5" y="630" width="30" height="30" as="geometry" />
        </mxCell>
        <mxCell id="1pz_eAjYBSW0tLDmS2cB-19" value="" style="ellipse;html=1;shape=startState;fillColor=#000000;strokeColor=#ff0000;" parent="1" vertex="1">
          <mxGeometry x="560" y="40" width="30" height="30" as="geometry" />
        </mxCell>
        <mxCell id="1pz_eAjYBSW0tLDmS2cB-20" value="" style="edgeStyle=orthogonalEdgeStyle;html=1;verticalAlign=bottom;endArrow=open;endSize=8;strokeColor=#ff0000;rounded=0;" parent="1" source="1pz_eAjYBSW0tLDmS2cB-19" edge="1">
          <mxGeometry relative="1" as="geometry">
            <mxPoint x="575" y="100" as="targetPoint" />
          </mxGeometry>
        </mxCell>
        <mxCell id="1pz_eAjYBSW0tLDmS2cB-21" value="Selecionar ufcd" style="rounded=1;whiteSpace=wrap;html=1;arcSize=40;fontColor=#000000;fillColor=#ffffc0;strokeColor=#ff0000;" parent="1" vertex="1">
          <mxGeometry x="515" y="100" width="120" height="40" as="geometry" />
        </mxCell>
        <mxCell id="1pz_eAjYBSW0tLDmS2cB-22" value="" style="edgeStyle=orthogonalEdgeStyle;html=1;verticalAlign=bottom;endArrow=open;endSize=8;strokeColor=#ff0000;rounded=0;" parent="1" source="1pz_eAjYBSW0tLDmS2cB-21" edge="1">
          <mxGeometry relative="1" as="geometry">
            <mxPoint x="575" y="170" as="targetPoint" />
          </mxGeometry>
        </mxCell>
        <mxCell id="1pz_eAjYBSW0tLDmS2cB-23" value="" style="rhombus;whiteSpace=wrap;html=1;fontColor=#000000;fillColor=#ffffc0;strokeColor=#ff0000;" parent="1" vertex="1">
          <mxGeometry x="65" y="320" width="100" height="40" as="geometry" />
        </mxCell>
        <mxCell id="1pz_eAjYBSW0tLDmS2cB-24" value="[se selecionar consultar tarefa]" style="edgeStyle=orthogonalEdgeStyle;html=1;align=left;verticalAlign=bottom;endArrow=open;endSize=8;strokeColor=#ff0000;rounded=0;entryX=0.591;entryY=0.002;entryDx=0;entryDy=0;entryPerimeter=0;" parent="1" source="1pz_eAjYBSW0tLDmS2cB-23" target="1pz_eAjYBSW0tLDmS2cB-26" edge="1">
          <mxGeometry x="-1" relative="1" as="geometry">
            <mxPoint x="320" y="420" as="targetPoint" />
          </mxGeometry>
        </mxCell>
        <mxCell id="1pz_eAjYBSW0tLDmS2cB-25" value="[se selecionar criar tarefa]" style="edgeStyle=orthogonalEdgeStyle;html=1;align=left;verticalAlign=top;endArrow=open;endSize=8;strokeColor=#ff0000;rounded=0;" parent="1" source="1pz_eAjYBSW0tLDmS2cB-23" edge="1">
          <mxGeometry x="-1" relative="1" as="geometry">
            <mxPoint x="110" y="430" as="targetPoint" />
          </mxGeometry>
        </mxCell>
        <mxCell id="1pz_eAjYBSW0tLDmS2cB-26" value="selecionar formando" style="rounded=1;whiteSpace=wrap;html=1;arcSize=40;fontColor=#000000;fillColor=#ffffc0;strokeColor=#ff0000;" parent="1" vertex="1">
          <mxGeometry x="250" y="430" width="120" height="40" as="geometry" />
        </mxCell>
        <mxCell id="1pz_eAjYBSW0tLDmS2cB-27" value="" style="edgeStyle=orthogonalEdgeStyle;html=1;verticalAlign=bottom;endArrow=open;endSize=8;strokeColor=#ff0000;rounded=0;" parent="1" source="1pz_eAjYBSW0tLDmS2cB-26" edge="1">
          <mxGeometry relative="1" as="geometry">
            <mxPoint x="310" y="510" as="targetPoint" />
          </mxGeometry>
        </mxCell>
        <mxCell id="1pz_eAjYBSW0tLDmS2cB-28" value="dar nota" style="rounded=1;whiteSpace=wrap;html=1;arcSize=40;fontColor=#000000;fillColor=#ffffc0;strokeColor=#ff0000;" parent="1" vertex="1">
          <mxGeometry x="250" y="510" width="120" height="40" as="geometry" />
        </mxCell>
        <mxCell id="1pz_eAjYBSW0tLDmS2cB-29" value="" style="edgeStyle=orthogonalEdgeStyle;html=1;verticalAlign=bottom;endArrow=open;endSize=8;strokeColor=#ff0000;rounded=0;" parent="1" source="1pz_eAjYBSW0tLDmS2cB-28" edge="1">
          <mxGeometry relative="1" as="geometry">
            <mxPoint x="310" y="610" as="targetPoint" />
          </mxGeometry>
        </mxCell>
        <mxCell id="1pz_eAjYBSW0tLDmS2cB-30" value="" style="ellipse;html=1;shape=endState;fillColor=#000000;strokeColor=#ff0000;" parent="1" vertex="1">
          <mxGeometry x="295" y="610" width="30" height="30" as="geometry" />
        </mxCell>
        <mxCell id="1pz_eAjYBSW0tLDmS2cB-31" value="Consultar tarefa" style="rounded=1;whiteSpace=wrap;html=1;arcSize=40;fontColor=#000000;fillColor=#ffffc0;strokeColor=#ff0000;" parent="1" vertex="1">
          <mxGeometry x="515" y="170" width="120" height="40" as="geometry" />
        </mxCell>
        <mxCell id="1pz_eAjYBSW0tLDmS2cB-32" value="" style="edgeStyle=orthogonalEdgeStyle;html=1;verticalAlign=bottom;endArrow=open;endSize=8;strokeColor=#ff0000;rounded=0;" parent="1" edge="1">
          <mxGeometry relative="1" as="geometry">
            <mxPoint x="574.66" y="240" as="targetPoint" />
            <mxPoint x="574.66" y="210" as="sourcePoint" />
          </mxGeometry>
        </mxCell>
        <mxCell id="1pz_eAjYBSW0tLDmS2cB-33" value="" style="rhombus;whiteSpace=wrap;html=1;fontColor=#000000;fillColor=#ffffc0;strokeColor=#ff0000;" parent="1" vertex="1">
          <mxGeometry x="535" y="240" width="80" height="40" as="geometry" />
        </mxCell>
        <mxCell id="1pz_eAjYBSW0tLDmS2cB-34" value="[se tarefa ja foi entregue]" style="edgeStyle=orthogonalEdgeStyle;html=1;align=left;verticalAlign=bottom;endArrow=open;endSize=8;strokeColor=#ff0000;rounded=0;" parent="1" source="1pz_eAjYBSW0tLDmS2cB-33" edge="1">
          <mxGeometry x="-1" relative="1" as="geometry">
            <mxPoint x="730" y="370" as="targetPoint" />
          </mxGeometry>
        </mxCell>
        <mxCell id="1pz_eAjYBSW0tLDmS2cB-35" value="[se tarefa não foi entregue]" style="edgeStyle=orthogonalEdgeStyle;html=1;align=left;verticalAlign=top;endArrow=open;endSize=8;strokeColor=#ff0000;rounded=0;exitX=0.5;exitY=1;exitDx=0;exitDy=0;" parent="1" source="1pz_eAjYBSW0tLDmS2cB-33" edge="1">
          <mxGeometry x="-0.6522" y="5" relative="1" as="geometry">
            <mxPoint x="570" y="450" as="targetPoint" />
            <Array as="points">
              <mxPoint x="570" y="280" />
            </Array>
            <mxPoint as="offset" />
          </mxGeometry>
        </mxCell>
        <mxCell id="1pz_eAjYBSW0tLDmS2cB-36" value="consultar nota" style="rounded=1;whiteSpace=wrap;html=1;arcSize=40;fontColor=#000000;fillColor=#ffffc0;strokeColor=#ff0000;" parent="1" vertex="1">
          <mxGeometry x="670" y="370" width="120" height="40" as="geometry" />
        </mxCell>
        <mxCell id="1pz_eAjYBSW0tLDmS2cB-37" value="" style="edgeStyle=orthogonalEdgeStyle;html=1;verticalAlign=bottom;endArrow=open;endSize=8;strokeColor=#ff0000;rounded=0;" parent="1" source="1pz_eAjYBSW0tLDmS2cB-36" edge="1">
          <mxGeometry relative="1" as="geometry">
            <mxPoint x="730" y="470" as="targetPoint" />
          </mxGeometry>
        </mxCell>
        <mxCell id="1pz_eAjYBSW0tLDmS2cB-38" value="Anexar atividade (se necessário)" style="rounded=1;whiteSpace=wrap;html=1;arcSize=40;fontColor=#000000;fillColor=#ffffc0;strokeColor=#ff0000;" parent="1" vertex="1">
          <mxGeometry x="510" y="450" width="120" height="40" as="geometry" />
        </mxCell>
        <mxCell id="1pz_eAjYBSW0tLDmS2cB-39" value="" style="edgeStyle=orthogonalEdgeStyle;html=1;verticalAlign=bottom;endArrow=open;endSize=8;strokeColor=#ff0000;rounded=0;" parent="1" source="1pz_eAjYBSW0tLDmS2cB-38" edge="1">
          <mxGeometry relative="1" as="geometry">
            <mxPoint x="570" y="550" as="targetPoint" />
          </mxGeometry>
        </mxCell>
        <mxCell id="1pz_eAjYBSW0tLDmS2cB-40" value="Enviar tarefa" style="rounded=1;whiteSpace=wrap;html=1;arcSize=40;fontColor=#000000;fillColor=#ffffc0;strokeColor=#ff0000;" parent="1" vertex="1">
          <mxGeometry x="510" y="550" width="120" height="40" as="geometry" />
        </mxCell>
        <mxCell id="1pz_eAjYBSW0tLDmS2cB-41" value="" style="edgeStyle=orthogonalEdgeStyle;html=1;verticalAlign=bottom;endArrow=open;endSize=8;strokeColor=#ff0000;rounded=0;" parent="1" source="1pz_eAjYBSW0tLDmS2cB-40" edge="1">
          <mxGeometry relative="1" as="geometry">
            <mxPoint x="570" y="650" as="targetPoint" />
          </mxGeometry>
        </mxCell>
        <mxCell id="1pz_eAjYBSW0tLDmS2cB-42" value="" style="ellipse;html=1;shape=endState;fillColor=#000000;strokeColor=#ff0000;" parent="1" vertex="1">
          <mxGeometry x="715" y="470" width="30" height="30" as="geometry" />
        </mxCell>
        <mxCell id="1pz_eAjYBSW0tLDmS2cB-43" value="" style="ellipse;html=1;shape=endState;fillColor=#000000;strokeColor=#ff0000;" parent="1" vertex="1">
          <mxGeometry x="555" y="650" width="30" height="30" as="geometry" />
        </mxCell>
      </root>
    </mxGraphModel>
  </diagram>
  <diagram id="IMu3pZOSpGB0Gf2lInlN" name="Calendário de disponibilidade dos formadores">
    <mxGraphModel dx="767" dy="827" grid="1" gridSize="10" guides="1" tooltips="1" connect="1" arrows="1" fold="1" page="1" pageScale="1" pageWidth="827" pageHeight="1169" math="0" shadow="0">
      <root>
        <mxCell id="0" />
        <mxCell id="1" parent="0" />
        <mxCell id="Zc8lPU657dGhLAYbhcdJ-1" value="" style="rounded=0;whiteSpace=wrap;html=1;" parent="1" vertex="1">
          <mxGeometry x="16" y="70" width="790" height="330" as="geometry" />
        </mxCell>
        <mxCell id="Zc8lPU657dGhLAYbhcdJ-2" value="Calendário de disponibilidade" style="text;html=1;align=center;verticalAlign=middle;whiteSpace=wrap;rounded=0;" parent="1" vertex="1">
          <mxGeometry x="616" y="80" width="196" height="30" as="geometry" />
        </mxCell>
        <mxCell id="Zc8lPU657dGhLAYbhcdJ-3" style="rounded=0;orthogonalLoop=1;jettySize=auto;html=1;entryX=0;entryY=0.5;entryDx=0;entryDy=0;endArrow=none;endFill=0;" parent="1" source="Zc8lPU657dGhLAYbhcdJ-5" target="Zc8lPU657dGhLAYbhcdJ-7" edge="1">
          <mxGeometry relative="1" as="geometry" />
        </mxCell>
        <mxCell id="Zc8lPU657dGhLAYbhcdJ-4" style="rounded=0;orthogonalLoop=1;jettySize=auto;html=1;entryX=0;entryY=0.5;entryDx=0;entryDy=0;endArrow=none;endFill=0;" parent="1" source="Zc8lPU657dGhLAYbhcdJ-5" target="Zc8lPU657dGhLAYbhcdJ-6" edge="1">
          <mxGeometry relative="1" as="geometry" />
        </mxCell>
        <mxCell id="Zc8lPU657dGhLAYbhcdJ-5" value="Formador" style="shape=umlActor;verticalLabelPosition=bottom;verticalAlign=top;html=1;outlineConnect=0;" parent="1" vertex="1">
          <mxGeometry x="96" y="210" width="30" height="60" as="geometry" />
        </mxCell>
        <mxCell id="Zc8lPU657dGhLAYbhcdJ-6" value="Sincronizar Calendário" style="ellipse;whiteSpace=wrap;html=1;" parent="1" vertex="1">
          <mxGeometry x="321" y="260" width="105" height="70" as="geometry" />
        </mxCell>
        <mxCell id="Zc8lPU657dGhLAYbhcdJ-7" value="Preencher Calendário" style="ellipse;whiteSpace=wrap;html=1;" parent="1" vertex="1">
          <mxGeometry x="306" y="140" width="135" height="90" as="geometry" />
        </mxCell>
        <mxCell id="Zc8lPU657dGhLAYbhcdJ-8" value="Registar dados" style="ellipse;whiteSpace=wrap;html=1;" parent="1" vertex="1">
          <mxGeometry x="517" y="180" width="135" height="90" as="geometry" />
        </mxCell>
        <mxCell id="Zc8lPU657dGhLAYbhcdJ-9" value="Include" style="endArrow=open;endSize=12;dashed=1;html=1;rounded=0;entryX=0;entryY=0.5;entryDx=0;entryDy=0;exitX=1;exitY=0.5;exitDx=0;exitDy=0;" parent="1" source="Zc8lPU657dGhLAYbhcdJ-6" target="Zc8lPU657dGhLAYbhcdJ-8" edge="1">
          <mxGeometry width="160" relative="1" as="geometry">
            <mxPoint x="608" y="454" as="sourcePoint" />
            <mxPoint x="748" y="415" as="targetPoint" />
          </mxGeometry>
        </mxCell>
        <mxCell id="Zc8lPU657dGhLAYbhcdJ-10" value="Include" style="endArrow=open;endSize=12;dashed=1;html=1;rounded=0;entryX=0;entryY=0.5;entryDx=0;entryDy=0;exitX=1;exitY=0.5;exitDx=0;exitDy=0;" parent="1" source="Zc8lPU657dGhLAYbhcdJ-7" target="Zc8lPU657dGhLAYbhcdJ-8" edge="1">
          <mxGeometry width="160" relative="1" as="geometry">
            <mxPoint x="485.14999999999804" y="645" as="sourcePoint" />
            <mxPoint x="687" y="640" as="targetPoint" />
          </mxGeometry>
        </mxCell>
      </root>
    </mxGraphModel>
  </diagram>
  <diagram name="Diag Atividade - Calendário de disponibilidade dos formadores" id="29l9eLEWohSK3NWJ7O53">
    <mxGraphModel dx="1489" dy="836" grid="1" gridSize="10" guides="1" tooltips="1" connect="1" arrows="1" fold="1" page="1" pageScale="1" pageWidth="827" pageHeight="1169" math="0" shadow="0">
      <root>
        <mxCell id="S_bp8iUwfcYE_fHjWuPS-0" />
        <mxCell id="S_bp8iUwfcYE_fHjWuPS-1" parent="S_bp8iUwfcYE_fHjWuPS-0" />
        <mxCell id="iwmTLLF5Q304tUp4UJEn-0" value="" style="ellipse;html=1;shape=startState;fillColor=#000000;strokeColor=#ff0000;" parent="S_bp8iUwfcYE_fHjWuPS-1" vertex="1">
          <mxGeometry x="300" y="60" width="30" height="30" as="geometry" />
        </mxCell>
        <mxCell id="iwmTLLF5Q304tUp4UJEn-1" value="" style="edgeStyle=orthogonalEdgeStyle;html=1;verticalAlign=bottom;endArrow=open;endSize=8;strokeColor=#ff0000;rounded=0;" parent="S_bp8iUwfcYE_fHjWuPS-1" source="iwmTLLF5Q304tUp4UJEn-0" edge="1">
          <mxGeometry relative="1" as="geometry">
            <mxPoint x="315" y="150" as="targetPoint" />
          </mxGeometry>
        </mxCell>
        <mxCell id="8EWv0SS4RrCzvhtLxTcs-1" style="edgeStyle=orthogonalEdgeStyle;rounded=0;orthogonalLoop=1;jettySize=auto;html=1;strokeColor=#CC0000;" parent="S_bp8iUwfcYE_fHjWuPS-1" source="iwmTLLF5Q304tUp4UJEn-2" target="8EWv0SS4RrCzvhtLxTcs-2" edge="1">
          <mxGeometry relative="1" as="geometry">
            <mxPoint x="315" y="260" as="targetPoint" />
          </mxGeometry>
        </mxCell>
        <mxCell id="iwmTLLF5Q304tUp4UJEn-2" value="Login" style="rounded=1;whiteSpace=wrap;html=1;arcSize=40;fontColor=#000000;fillColor=#ffffc0;strokeColor=#ff0000;" parent="S_bp8iUwfcYE_fHjWuPS-1" vertex="1">
          <mxGeometry x="255" y="150" width="120" height="40" as="geometry" />
        </mxCell>
        <mxCell id="8EWv0SS4RrCzvhtLxTcs-3" style="edgeStyle=orthogonalEdgeStyle;rounded=0;orthogonalLoop=1;jettySize=auto;html=1;strokeColor=#CC0000;" parent="S_bp8iUwfcYE_fHjWuPS-1" source="8EWv0SS4RrCzvhtLxTcs-2" target="8EWv0SS4RrCzvhtLxTcs-9" edge="1">
          <mxGeometry relative="1" as="geometry">
            <mxPoint x="490" y="260" as="targetPoint" />
          </mxGeometry>
        </mxCell>
        <mxCell id="8EWv0SS4RrCzvhtLxTcs-4" style="edgeStyle=orthogonalEdgeStyle;rounded=0;orthogonalLoop=1;jettySize=auto;html=1;strokeColor=#CC0000;" parent="S_bp8iUwfcYE_fHjWuPS-1" source="8EWv0SS4RrCzvhtLxTcs-2" edge="1">
          <mxGeometry relative="1" as="geometry">
            <mxPoint x="315" y="400" as="targetPoint" />
          </mxGeometry>
        </mxCell>
        <mxCell id="8EWv0SS4RrCzvhtLxTcs-2" value="" style="rhombus;whiteSpace=wrap;html=1;fontColor=#000000;fillColor=#ffffc0;strokeColor=#ff0000;" parent="S_bp8iUwfcYE_fHjWuPS-1" vertex="1">
          <mxGeometry x="275" y="240" width="80" height="40" as="geometry" />
        </mxCell>
        <mxCell id="8EWv0SS4RrCzvhtLxTcs-6" value="coordenador" style="text;align=center;fontStyle=1;verticalAlign=middle;spacingLeft=3;spacingRight=3;strokeColor=none;rotatable=0;points=[[0,0.5],[1,0.5]];portConstraint=eastwest;html=1;" parent="S_bp8iUwfcYE_fHjWuPS-1" vertex="1">
          <mxGeometry x="378" y="238" width="80" height="26" as="geometry" />
        </mxCell>
        <mxCell id="8EWv0SS4RrCzvhtLxTcs-8" value="formador" style="text;align=center;fontStyle=1;verticalAlign=middle;spacingLeft=3;spacingRight=3;strokeColor=none;rotatable=0;points=[[0,0.5],[1,0.5]];portConstraint=eastwest;html=1;" parent="S_bp8iUwfcYE_fHjWuPS-1" vertex="1">
          <mxGeometry x="240" y="330" width="80" height="26" as="geometry" />
        </mxCell>
        <mxCell id="TCacP0NHO20aAlcDIUgt-0" style="edgeStyle=orthogonalEdgeStyle;rounded=0;orthogonalLoop=1;jettySize=auto;html=1;strokeColor=#CC0000;" parent="S_bp8iUwfcYE_fHjWuPS-1" source="8EWv0SS4RrCzvhtLxTcs-9" target="TCacP0NHO20aAlcDIUgt-1" edge="1">
          <mxGeometry relative="1" as="geometry">
            <mxPoint x="560" y="350" as="targetPoint" />
          </mxGeometry>
        </mxCell>
        <mxCell id="8EWv0SS4RrCzvhtLxTcs-9" value="Visualizar o calendário de disponibilidade" style="rounded=1;whiteSpace=wrap;html=1;arcSize=40;fontColor=#000000;fillColor=#ffffc0;strokeColor=#ff0000;" parent="S_bp8iUwfcYE_fHjWuPS-1" vertex="1">
          <mxGeometry x="500" y="240" width="130" height="40" as="geometry" />
        </mxCell>
        <mxCell id="TCacP0NHO20aAlcDIUgt-1" value="" style="ellipse;html=1;shape=endState;fillColor=#000000;strokeColor=#ff0000;" parent="S_bp8iUwfcYE_fHjWuPS-1" vertex="1">
          <mxGeometry x="550" y="340" width="30" height="30" as="geometry" />
        </mxCell>
        <mxCell id="a4-c-62w0SLv7ylMY31r-0" style="edgeStyle=orthogonalEdgeStyle;rounded=0;orthogonalLoop=1;jettySize=auto;html=1;fillColor=#CC0000;strokeColor=#CC0000;strokeWidth=1;" parent="S_bp8iUwfcYE_fHjWuPS-1" source="a4-c-62w0SLv7ylMY31r-1" target="a4-c-62w0SLv7ylMY31r-11" edge="1">
          <mxGeometry relative="1" as="geometry">
            <mxPoint x="315" y="800" as="targetPoint" />
          </mxGeometry>
        </mxCell>
        <mxCell id="a4-c-62w0SLv7ylMY31r-1" value="Salvar alterações" style="rounded=1;whiteSpace=wrap;html=1;arcSize=40;fontColor=#000000;fillColor=#ffffc0;strokeColor=#ff0000;" parent="S_bp8iUwfcYE_fHjWuPS-1" vertex="1">
          <mxGeometry x="255" y="690" width="120" height="40" as="geometry" />
        </mxCell>
        <mxCell id="a4-c-62w0SLv7ylMY31r-2" style="edgeStyle=orthogonalEdgeStyle;rounded=0;orthogonalLoop=1;jettySize=auto;html=1;entryX=0.885;entryY=0.1;entryDx=0;entryDy=0;entryPerimeter=0;fillColor=#CC0000;strokeColor=#CC0000;strokeWidth=1;" parent="S_bp8iUwfcYE_fHjWuPS-1" source="a4-c-62w0SLv7ylMY31r-5" target="a4-c-62w0SLv7ylMY31r-9" edge="1">
          <mxGeometry relative="1" as="geometry">
            <mxPoint x="440" y="420" as="targetPoint" />
            <Array as="points">
              <mxPoint x="392" y="420" />
            </Array>
          </mxGeometry>
        </mxCell>
        <mxCell id="a4-c-62w0SLv7ylMY31r-3" style="edgeStyle=orthogonalEdgeStyle;rounded=0;orthogonalLoop=1;jettySize=auto;html=1;fillColor=#CC0000;strokeColor=#CC0000;strokeWidth=1;" parent="S_bp8iUwfcYE_fHjWuPS-1" source="a4-c-62w0SLv7ylMY31r-5" target="a4-c-62w0SLv7ylMY31r-9" edge="1">
          <mxGeometry relative="1" as="geometry">
            <mxPoint x="315" y="520" as="targetPoint" />
          </mxGeometry>
        </mxCell>
        <mxCell id="a4-c-62w0SLv7ylMY31r-4" style="edgeStyle=orthogonalEdgeStyle;rounded=0;orthogonalLoop=1;jettySize=auto;html=1;entryX=0.17;entryY=0.2;entryDx=0;entryDy=0;entryPerimeter=0;exitX=0;exitY=0.5;exitDx=0;exitDy=0;fillColor=#CC0000;strokeColor=#CC0000;strokeWidth=1;" parent="S_bp8iUwfcYE_fHjWuPS-1" source="a4-c-62w0SLv7ylMY31r-5" edge="1">
          <mxGeometry relative="1" as="geometry">
            <mxPoint x="240" y="610" as="targetPoint" />
            <mxPoint x="270" y="420" as="sourcePoint" />
            <Array as="points">
              <mxPoint x="275" y="418" />
              <mxPoint x="240" y="418" />
            </Array>
          </mxGeometry>
        </mxCell>
        <mxCell id="a4-c-62w0SLv7ylMY31r-5" value="" style="rhombus;whiteSpace=wrap;html=1;fontColor=#000000;fillColor=#ffffc0;strokeColor=#ff0000;" parent="S_bp8iUwfcYE_fHjWuPS-1" vertex="1">
          <mxGeometry x="275" y="400" width="80" height="40" as="geometry" />
        </mxCell>
        <mxCell id="a4-c-62w0SLv7ylMY31r-6" value="Editar" style="text;align=center;fontStyle=1;verticalAlign=middle;spacingLeft=3;spacingRight=3;strokeColor=none;rotatable=0;points=[[0,0.5],[1,0.5]];portConstraint=eastwest;html=1;" parent="S_bp8iUwfcYE_fHjWuPS-1" vertex="1">
          <mxGeometry x="375" y="500" width="80" height="26" as="geometry" />
        </mxCell>
        <mxCell id="a4-c-62w0SLv7ylMY31r-7" value="Apagar" style="text;align=center;fontStyle=1;verticalAlign=middle;spacingLeft=3;spacingRight=3;strokeColor=none;rotatable=0;points=[[0,0.5],[1,0.5]];portConstraint=eastwest;html=1;" parent="S_bp8iUwfcYE_fHjWuPS-1" vertex="1">
          <mxGeometry x="300" y="500" width="80" height="26" as="geometry" />
        </mxCell>
        <mxCell id="a4-c-62w0SLv7ylMY31r-8" value="Adicionar" style="text;align=center;fontStyle=1;verticalAlign=middle;spacingLeft=3;spacingRight=3;strokeColor=none;rotatable=0;points=[[0,0.5],[1,0.5]];portConstraint=eastwest;html=1;" parent="S_bp8iUwfcYE_fHjWuPS-1" vertex="1">
          <mxGeometry x="160" y="500" width="80" height="26" as="geometry" />
        </mxCell>
        <mxCell id="a4-c-62w0SLv7ylMY31r-9" value="" style="shape=line;html=1;strokeWidth=6;strokeColor=#ff0000;" parent="S_bp8iUwfcYE_fHjWuPS-1" vertex="1">
          <mxGeometry x="215" y="610" width="200" height="10" as="geometry" />
        </mxCell>
        <mxCell id="a4-c-62w0SLv7ylMY31r-10" value="" style="edgeStyle=orthogonalEdgeStyle;html=1;verticalAlign=bottom;endArrow=open;endSize=8;strokeColor=#ff0000;rounded=0;" parent="S_bp8iUwfcYE_fHjWuPS-1" source="a4-c-62w0SLv7ylMY31r-9" edge="1">
          <mxGeometry relative="1" as="geometry">
            <mxPoint x="315" y="690" as="targetPoint" />
          </mxGeometry>
        </mxCell>
        <mxCell id="a4-c-62w0SLv7ylMY31r-11" value="" style="ellipse;html=1;shape=endState;fillColor=#000000;strokeColor=#ff0000;" parent="S_bp8iUwfcYE_fHjWuPS-1" vertex="1">
          <mxGeometry x="300" y="785" width="30" height="30" as="geometry" />
        </mxCell>
      </root>
    </mxGraphModel>
  </diagram>
  <diagram id="23eKrm8N3wYfN1hLmRfy" name="Cronograma">
    <mxGraphModel dx="767" dy="827" grid="1" gridSize="10" guides="1" tooltips="1" connect="1" arrows="1" fold="1" page="1" pageScale="1" pageWidth="827" pageHeight="1169" math="0" shadow="0">
      <root>
        <mxCell id="0" />
        <mxCell id="1" parent="0" />
        <mxCell id="gZLMiFeM6dYgyIumIlOr-1" value="" style="rounded=0;whiteSpace=wrap;html=1;" parent="1" vertex="1">
          <mxGeometry x="110" y="255" width="560" height="330" as="geometry" />
        </mxCell>
        <mxCell id="gZLMiFeM6dYgyIumIlOr-2" value="Cronograma" style="text;html=1;align=center;verticalAlign=middle;whiteSpace=wrap;rounded=0;" parent="1" vertex="1">
          <mxGeometry x="464.5" y="265" width="196" height="30" as="geometry" />
        </mxCell>
        <mxCell id="gZLMiFeM6dYgyIumIlOr-3" style="rounded=0;orthogonalLoop=1;jettySize=auto;html=1;entryX=0;entryY=0.5;entryDx=0;entryDy=0;endArrow=none;endFill=0;" parent="1" source="gZLMiFeM6dYgyIumIlOr-5" target="gZLMiFeM6dYgyIumIlOr-7" edge="1">
          <mxGeometry relative="1" as="geometry" />
        </mxCell>
        <mxCell id="gZLMiFeM6dYgyIumIlOr-4" style="rounded=0;orthogonalLoop=1;jettySize=auto;html=1;entryX=0;entryY=0.5;entryDx=0;entryDy=0;endArrow=none;endFill=0;" parent="1" source="gZLMiFeM6dYgyIumIlOr-5" target="gZLMiFeM6dYgyIumIlOr-6" edge="1">
          <mxGeometry relative="1" as="geometry" />
        </mxCell>
        <mxCell id="gZLMiFeM6dYgyIumIlOr-5" value="Coordenador" style="shape=umlActor;verticalLabelPosition=bottom;verticalAlign=top;html=1;outlineConnect=0;" parent="1" vertex="1">
          <mxGeometry x="160" y="395" width="30" height="60" as="geometry" />
        </mxCell>
        <mxCell id="gZLMiFeM6dYgyIumIlOr-6" value="Visualizar Cronograma" style="ellipse;whiteSpace=wrap;html=1;" parent="1" vertex="1">
          <mxGeometry x="300" y="445" width="105" height="70" as="geometry" />
        </mxCell>
        <mxCell id="gZLMiFeM6dYgyIumIlOr-7" value="Criar Cronograma" style="ellipse;whiteSpace=wrap;html=1;" parent="1" vertex="1">
          <mxGeometry x="300" y="335" width="105" height="70" as="geometry" />
        </mxCell>
        <mxCell id="gZLMiFeM6dYgyIumIlOr-8" value="Atribuir Formadores a UFCD&#39;s" style="ellipse;whiteSpace=wrap;html=1;" parent="1" vertex="1">
          <mxGeometry x="510" y="435" width="105" height="70" as="geometry" />
        </mxCell>
        <mxCell id="gZLMiFeM6dYgyIumIlOr-9" value="Include" style="endArrow=open;endSize=12;dashed=1;html=1;rounded=0;entryX=0;entryY=0.5;entryDx=0;entryDy=0;exitX=1;exitY=0.5;exitDx=0;exitDy=0;" parent="1" source="gZLMiFeM6dYgyIumIlOr-7" target="gZLMiFeM6dYgyIumIlOr-8" edge="1">
          <mxGeometry width="160" relative="1" as="geometry">
            <mxPoint x="652" y="459" as="sourcePoint" />
            <mxPoint x="792" y="420" as="targetPoint" />
          </mxGeometry>
        </mxCell>
        <mxCell id="gZLMiFeM6dYgyIumIlOr-10" value="Notificar Utilizadores Envolvidos" style="ellipse;whiteSpace=wrap;html=1;" parent="1" vertex="1">
          <mxGeometry x="495" y="315" width="135" height="90" as="geometry" />
        </mxCell>
        <mxCell id="gZLMiFeM6dYgyIumIlOr-11" value="Include" style="endArrow=open;endSize=12;dashed=1;html=1;rounded=0;entryX=0;entryY=0.5;entryDx=0;entryDy=0;exitX=1;exitY=0.5;exitDx=0;exitDy=0;" parent="1" source="gZLMiFeM6dYgyIumIlOr-7" target="gZLMiFeM6dYgyIumIlOr-10" edge="1">
          <mxGeometry width="160" relative="1" as="geometry">
            <mxPoint x="415" y="380" as="sourcePoint" />
            <mxPoint x="480" y="480" as="targetPoint" />
          </mxGeometry>
        </mxCell>
      </root>
    </mxGraphModel>
  </diagram>
  <diagram name="Diag Atividade - Cronograma" id="sKUnHcR9N5NcAWtt3oAr">
    <mxGraphModel dx="767" dy="827" grid="1" gridSize="10" guides="1" tooltips="1" connect="1" arrows="1" fold="1" page="1" pageScale="1" pageWidth="827" pageHeight="1169" math="0" shadow="0">
      <root>
        <mxCell id="AXScqQJ3LZUk723PJ9lV-0" />
        <mxCell id="AXScqQJ3LZUk723PJ9lV-1" parent="AXScqQJ3LZUk723PJ9lV-0" />
        <mxCell id="2xTMn2aXisZKUcg5lAjP-0" value="" style="ellipse;html=1;shape=startState;fillColor=#000000;strokeColor=#ff0000;" parent="AXScqQJ3LZUk723PJ9lV-1" vertex="1">
          <mxGeometry x="250" y="100" width="30" height="30" as="geometry" />
        </mxCell>
        <mxCell id="2xTMn2aXisZKUcg5lAjP-1" value="" style="edgeStyle=orthogonalEdgeStyle;html=1;verticalAlign=bottom;endArrow=open;endSize=8;strokeColor=#ff0000;rounded=0;" parent="AXScqQJ3LZUk723PJ9lV-1" source="2xTMn2aXisZKUcg5lAjP-0" edge="1">
          <mxGeometry relative="1" as="geometry">
            <mxPoint x="265" y="190" as="targetPoint" />
          </mxGeometry>
        </mxCell>
        <mxCell id="2xTMn2aXisZKUcg5lAjP-2" value="Login" style="rounded=1;whiteSpace=wrap;html=1;arcSize=40;fontColor=#000000;fillColor=#ffffc0;strokeColor=#ff0000;" parent="AXScqQJ3LZUk723PJ9lV-1" vertex="1">
          <mxGeometry x="205" y="190" width="120" height="40" as="geometry" />
        </mxCell>
        <mxCell id="2xTMn2aXisZKUcg5lAjP-3" value="" style="edgeStyle=orthogonalEdgeStyle;html=1;verticalAlign=bottom;endArrow=open;endSize=8;strokeColor=#ff0000;rounded=0;" parent="AXScqQJ3LZUk723PJ9lV-1" source="2xTMn2aXisZKUcg5lAjP-2" edge="1">
          <mxGeometry relative="1" as="geometry">
            <mxPoint x="265" y="290" as="targetPoint" />
          </mxGeometry>
        </mxCell>
        <mxCell id="JZWCGCQfdsZmXGovdItT-0" style="edgeStyle=orthogonalEdgeStyle;rounded=0;orthogonalLoop=1;jettySize=auto;html=1;fillColor=#CC0000;strokeColor=#CC0000;strokeWidth=1;" parent="AXScqQJ3LZUk723PJ9lV-1" source="2xTMn2aXisZKUcg5lAjP-6" target="JZWCGCQfdsZmXGovdItT-4" edge="1">
          <mxGeometry relative="1" as="geometry">
            <mxPoint x="265" y="430" as="targetPoint" />
          </mxGeometry>
        </mxCell>
        <mxCell id="2xTMn2aXisZKUcg5lAjP-6" value="" style="rhombus;whiteSpace=wrap;html=1;fontColor=#000000;fillColor=#ffffc0;strokeColor=#ff0000;" parent="AXScqQJ3LZUk723PJ9lV-1" vertex="1">
          <mxGeometry x="225" y="290" width="80" height="40" as="geometry" />
        </mxCell>
        <mxCell id="2xTMn2aXisZKUcg5lAjP-7" value="formando/formador" style="edgeStyle=orthogonalEdgeStyle;html=1;align=left;verticalAlign=bottom;endArrow=open;endSize=8;strokeColor=#ff0000;rounded=0;" parent="AXScqQJ3LZUk723PJ9lV-1" source="2xTMn2aXisZKUcg5lAjP-6" target="JZWCGCQfdsZmXGovdItT-1" edge="1">
          <mxGeometry x="-0.9052" y="10" relative="1" as="geometry">
            <mxPoint x="410" y="310" as="targetPoint" />
            <mxPoint as="offset" />
          </mxGeometry>
        </mxCell>
        <mxCell id="JZWCGCQfdsZmXGovdItT-3" style="edgeStyle=orthogonalEdgeStyle;rounded=0;orthogonalLoop=1;jettySize=auto;html=1;fillColor=#CC0000;strokeColor=#CC0000;strokeWidth=1;" parent="AXScqQJ3LZUk723PJ9lV-1" source="JZWCGCQfdsZmXGovdItT-1" edge="1">
          <mxGeometry relative="1" as="geometry">
            <mxPoint x="500" y="370" as="targetPoint" />
          </mxGeometry>
        </mxCell>
        <mxCell id="JZWCGCQfdsZmXGovdItT-1" value="Visualizar cronograma" style="rounded=1;whiteSpace=wrap;html=1;arcSize=40;fontColor=#000000;fillColor=#ffffc0;strokeColor=#ff0000;" parent="AXScqQJ3LZUk723PJ9lV-1" vertex="1">
          <mxGeometry x="440" y="290" width="120" height="40" as="geometry" />
        </mxCell>
        <mxCell id="JZWCGCQfdsZmXGovdItT-2" value="" style="ellipse;html=1;shape=endState;fillColor=#000000;strokeColor=#ff0000;" parent="AXScqQJ3LZUk723PJ9lV-1" vertex="1">
          <mxGeometry x="485" y="370" width="30" height="30" as="geometry" />
        </mxCell>
        <mxCell id="JZWCGCQfdsZmXGovdItT-6" style="edgeStyle=orthogonalEdgeStyle;rounded=0;orthogonalLoop=1;jettySize=auto;html=1;fillColor=#CC0000;strokeColor=#CC0000;strokeWidth=1;" parent="AXScqQJ3LZUk723PJ9lV-1" source="JZWCGCQfdsZmXGovdItT-4" edge="1">
          <mxGeometry relative="1" as="geometry">
            <mxPoint x="265" y="530" as="targetPoint" />
          </mxGeometry>
        </mxCell>
        <mxCell id="JZWCGCQfdsZmXGovdItT-4" value="Visualizar cronograma" style="rounded=1;whiteSpace=wrap;html=1;arcSize=40;fontColor=#000000;fillColor=#ffffc0;strokeColor=#ff0000;" parent="AXScqQJ3LZUk723PJ9lV-1" vertex="1">
          <mxGeometry x="205" y="410" width="120" height="40" as="geometry" />
        </mxCell>
        <mxCell id="JZWCGCQfdsZmXGovdItT-5" value="cordenador" style="text;align=center;fontStyle=1;verticalAlign=middle;spacingLeft=3;spacingRight=3;strokeColor=none;rotatable=0;points=[[0,0.5],[1,0.5]];portConstraint=eastwest;html=1;" parent="AXScqQJ3LZUk723PJ9lV-1" vertex="1">
          <mxGeometry x="260" y="350" width="80" height="26" as="geometry" />
        </mxCell>
        <mxCell id="JZWCGCQfdsZmXGovdItT-24" style="edgeStyle=orthogonalEdgeStyle;rounded=0;orthogonalLoop=1;jettySize=auto;html=1;fillColor=#CC0000;strokeColor=#CC0000;strokeWidth=1;" parent="AXScqQJ3LZUk723PJ9lV-1" source="JZWCGCQfdsZmXGovdItT-7" target="JZWCGCQfdsZmXGovdItT-25" edge="1">
          <mxGeometry relative="1" as="geometry">
            <mxPoint x="265" y="930" as="targetPoint" />
          </mxGeometry>
        </mxCell>
        <mxCell id="JZWCGCQfdsZmXGovdItT-7" value="Notificar formando e formador" style="rounded=1;whiteSpace=wrap;html=1;arcSize=40;fontColor=#000000;fillColor=#ffffc0;strokeColor=#ff0000;" parent="AXScqQJ3LZUk723PJ9lV-1" vertex="1">
          <mxGeometry x="205" y="820" width="120" height="40" as="geometry" />
        </mxCell>
        <mxCell id="JZWCGCQfdsZmXGovdItT-13" style="edgeStyle=orthogonalEdgeStyle;rounded=0;orthogonalLoop=1;jettySize=auto;html=1;entryX=0.885;entryY=0.1;entryDx=0;entryDy=0;entryPerimeter=0;fillColor=#CC0000;strokeColor=#CC0000;strokeWidth=1;" parent="AXScqQJ3LZUk723PJ9lV-1" source="JZWCGCQfdsZmXGovdItT-10" target="JZWCGCQfdsZmXGovdItT-22" edge="1">
          <mxGeometry relative="1" as="geometry">
            <mxPoint x="390" y="550" as="targetPoint" />
            <Array as="points">
              <mxPoint x="342" y="550" />
            </Array>
          </mxGeometry>
        </mxCell>
        <mxCell id="JZWCGCQfdsZmXGovdItT-17" style="edgeStyle=orthogonalEdgeStyle;rounded=0;orthogonalLoop=1;jettySize=auto;html=1;fillColor=#CC0000;strokeColor=#CC0000;strokeWidth=1;" parent="AXScqQJ3LZUk723PJ9lV-1" source="JZWCGCQfdsZmXGovdItT-10" target="JZWCGCQfdsZmXGovdItT-22" edge="1">
          <mxGeometry relative="1" as="geometry">
            <mxPoint x="265" y="650" as="targetPoint" />
          </mxGeometry>
        </mxCell>
        <mxCell id="JZWCGCQfdsZmXGovdItT-19" style="edgeStyle=orthogonalEdgeStyle;rounded=0;orthogonalLoop=1;jettySize=auto;html=1;entryX=0.17;entryY=0.2;entryDx=0;entryDy=0;entryPerimeter=0;exitX=0;exitY=0.5;exitDx=0;exitDy=0;fillColor=#CC0000;strokeColor=#CC0000;strokeWidth=1;" parent="AXScqQJ3LZUk723PJ9lV-1" source="JZWCGCQfdsZmXGovdItT-10" edge="1">
          <mxGeometry relative="1" as="geometry">
            <mxPoint x="190" y="740" as="targetPoint" />
            <mxPoint x="220" y="550" as="sourcePoint" />
            <Array as="points">
              <mxPoint x="225" y="548" />
              <mxPoint x="190" y="548" />
            </Array>
          </mxGeometry>
        </mxCell>
        <mxCell id="JZWCGCQfdsZmXGovdItT-10" value="" style="rhombus;whiteSpace=wrap;html=1;fontColor=#000000;fillColor=#ffffc0;strokeColor=#ff0000;" parent="AXScqQJ3LZUk723PJ9lV-1" vertex="1">
          <mxGeometry x="225" y="530" width="80" height="40" as="geometry" />
        </mxCell>
        <mxCell id="JZWCGCQfdsZmXGovdItT-15" value="Editar" style="text;align=center;fontStyle=1;verticalAlign=middle;spacingLeft=3;spacingRight=3;strokeColor=none;rotatable=0;points=[[0,0.5],[1,0.5]];portConstraint=eastwest;html=1;" parent="AXScqQJ3LZUk723PJ9lV-1" vertex="1">
          <mxGeometry x="325" y="630" width="80" height="26" as="geometry" />
        </mxCell>
        <mxCell id="JZWCGCQfdsZmXGovdItT-18" value="Apagar" style="text;align=center;fontStyle=1;verticalAlign=middle;spacingLeft=3;spacingRight=3;strokeColor=none;rotatable=0;points=[[0,0.5],[1,0.5]];portConstraint=eastwest;html=1;" parent="AXScqQJ3LZUk723PJ9lV-1" vertex="1">
          <mxGeometry x="250" y="630" width="80" height="26" as="geometry" />
        </mxCell>
        <mxCell id="JZWCGCQfdsZmXGovdItT-21" value="Adicionar" style="text;align=center;fontStyle=1;verticalAlign=middle;spacingLeft=3;spacingRight=3;strokeColor=none;rotatable=0;points=[[0,0.5],[1,0.5]];portConstraint=eastwest;html=1;" parent="AXScqQJ3LZUk723PJ9lV-1" vertex="1">
          <mxGeometry x="110" y="630" width="80" height="26" as="geometry" />
        </mxCell>
        <mxCell id="JZWCGCQfdsZmXGovdItT-22" value="" style="shape=line;html=1;strokeWidth=6;strokeColor=#ff0000;" parent="AXScqQJ3LZUk723PJ9lV-1" vertex="1">
          <mxGeometry x="165" y="740" width="200" height="10" as="geometry" />
        </mxCell>
        <mxCell id="JZWCGCQfdsZmXGovdItT-23" value="" style="edgeStyle=orthogonalEdgeStyle;html=1;verticalAlign=bottom;endArrow=open;endSize=8;strokeColor=#ff0000;rounded=0;" parent="AXScqQJ3LZUk723PJ9lV-1" source="JZWCGCQfdsZmXGovdItT-22" edge="1">
          <mxGeometry relative="1" as="geometry">
            <mxPoint x="265" y="820" as="targetPoint" />
          </mxGeometry>
        </mxCell>
        <mxCell id="JZWCGCQfdsZmXGovdItT-25" value="" style="ellipse;html=1;shape=endState;fillColor=#000000;strokeColor=#ff0000;" parent="AXScqQJ3LZUk723PJ9lV-1" vertex="1">
          <mxGeometry x="250" y="915" width="30" height="30" as="geometry" />
        </mxCell>
        <mxCell id="T7gm6BN0p2Pw-Lm10ZUk-0" value="Utilizador" style="text;align=center;fontStyle=1;verticalAlign=middle;spacingLeft=3;spacingRight=3;strokeColor=none;rotatable=0;points=[[0,0.5],[1,0.5]];portConstraint=eastwest;html=1;" parent="AXScqQJ3LZUk723PJ9lV-1" vertex="1">
          <mxGeometry x="230" y="50" width="80" height="26" as="geometry" />
        </mxCell>
      </root>
    </mxGraphModel>
  </diagram>
  <diagram id="Yb2-uwKxOf-zp2vf9pEW" name="Sistema de notificações">
    <mxGraphModel dx="1550" dy="827" grid="1" gridSize="10" guides="1" tooltips="1" connect="1" arrows="1" fold="1" page="1" pageScale="1" pageWidth="827" pageHeight="1169" math="0" shadow="0">
      <root>
        <mxCell id="0" />
        <mxCell id="1" parent="0" />
        <mxCell id="UvBgQOkpxf9mwjRvhQFQ-1" value="" style="rounded=0;whiteSpace=wrap;html=1;" vertex="1" parent="1">
          <mxGeometry x="-20" y="10" width="790" height="670" as="geometry" />
        </mxCell>
        <mxCell id="UvBgQOkpxf9mwjRvhQFQ-2" value="Sistema de Notificações" style="text;html=1;align=center;verticalAlign=middle;whiteSpace=wrap;rounded=0;" vertex="1" parent="1">
          <mxGeometry x="600" y="20" width="159" height="30" as="geometry" />
        </mxCell>
        <mxCell id="UvBgQOkpxf9mwjRvhQFQ-3" style="rounded=0;orthogonalLoop=1;jettySize=auto;html=1;entryX=0;entryY=0.5;entryDx=0;entryDy=0;endArrow=none;endFill=0;" edge="1" parent="1" source="UvBgQOkpxf9mwjRvhQFQ-7" target="UvBgQOkpxf9mwjRvhQFQ-14">
          <mxGeometry relative="1" as="geometry" />
        </mxCell>
        <mxCell id="UvBgQOkpxf9mwjRvhQFQ-4" style="rounded=0;orthogonalLoop=1;jettySize=auto;html=1;entryX=0;entryY=0.5;entryDx=0;entryDy=0;endArrow=none;endFill=0;" edge="1" parent="1" source="UvBgQOkpxf9mwjRvhQFQ-7" target="UvBgQOkpxf9mwjRvhQFQ-13">
          <mxGeometry relative="1" as="geometry" />
        </mxCell>
        <mxCell id="UvBgQOkpxf9mwjRvhQFQ-5" style="rounded=0;orthogonalLoop=1;jettySize=auto;html=1;entryX=0;entryY=0.5;entryDx=0;entryDy=0;endArrow=none;endFill=0;" edge="1" parent="1" source="UvBgQOkpxf9mwjRvhQFQ-7" target="UvBgQOkpxf9mwjRvhQFQ-15">
          <mxGeometry relative="1" as="geometry" />
        </mxCell>
        <mxCell id="UvBgQOkpxf9mwjRvhQFQ-6" style="rounded=0;orthogonalLoop=1;jettySize=auto;html=1;entryX=0;entryY=0.5;entryDx=0;entryDy=0;endArrow=none;endFill=0;" edge="1" parent="1" source="UvBgQOkpxf9mwjRvhQFQ-7" target="UvBgQOkpxf9mwjRvhQFQ-17">
          <mxGeometry relative="1" as="geometry" />
        </mxCell>
        <mxCell id="UvBgQOkpxf9mwjRvhQFQ-7" value="Formando" style="shape=umlActor;verticalLabelPosition=bottom;verticalAlign=top;html=1;outlineConnect=0;" vertex="1" parent="1">
          <mxGeometry x="60" y="260" width="30" height="60" as="geometry" />
        </mxCell>
        <mxCell id="UvBgQOkpxf9mwjRvhQFQ-8" style="rounded=0;orthogonalLoop=1;jettySize=auto;html=1;entryX=0;entryY=0.5;entryDx=0;entryDy=0;endArrow=none;endFill=0;" edge="1" parent="1" source="UvBgQOkpxf9mwjRvhQFQ-12" target="UvBgQOkpxf9mwjRvhQFQ-16">
          <mxGeometry relative="1" as="geometry" />
        </mxCell>
        <mxCell id="UvBgQOkpxf9mwjRvhQFQ-9" style="rounded=0;orthogonalLoop=1;jettySize=auto;html=1;entryX=0;entryY=0.5;entryDx=0;entryDy=0;endArrow=none;endFill=0;" edge="1" parent="1" source="UvBgQOkpxf9mwjRvhQFQ-12" target="UvBgQOkpxf9mwjRvhQFQ-18">
          <mxGeometry relative="1" as="geometry" />
        </mxCell>
        <mxCell id="UvBgQOkpxf9mwjRvhQFQ-10" style="rounded=0;orthogonalLoop=1;jettySize=auto;html=1;entryX=0;entryY=0.5;entryDx=0;entryDy=0;endArrow=none;endFill=0;" edge="1" parent="1" source="UvBgQOkpxf9mwjRvhQFQ-12" target="UvBgQOkpxf9mwjRvhQFQ-15">
          <mxGeometry relative="1" as="geometry" />
        </mxCell>
        <mxCell id="UvBgQOkpxf9mwjRvhQFQ-11" style="rounded=0;orthogonalLoop=1;jettySize=auto;html=1;entryX=0;entryY=0.5;entryDx=0;entryDy=0;endArrow=none;endFill=0;" edge="1" parent="1" source="UvBgQOkpxf9mwjRvhQFQ-12" target="UvBgQOkpxf9mwjRvhQFQ-17">
          <mxGeometry relative="1" as="geometry" />
        </mxCell>
        <mxCell id="UvBgQOkpxf9mwjRvhQFQ-12" value="Formador" style="shape=umlActor;verticalLabelPosition=bottom;verticalAlign=top;html=1;outlineConnect=0;" vertex="1" parent="1">
          <mxGeometry x="60" y="400" width="30" height="60" as="geometry" />
        </mxCell>
        <mxCell id="UvBgQOkpxf9mwjRvhQFQ-13" value="Entregar Tarefa" style="ellipse;whiteSpace=wrap;html=1;" vertex="1" parent="1">
          <mxGeometry x="324" y="180" width="105" height="70" as="geometry" />
        </mxCell>
        <mxCell id="UvBgQOkpxf9mwjRvhQFQ-14" value="Visualizar Tarefas" style="ellipse;whiteSpace=wrap;html=1;" vertex="1" parent="1">
          <mxGeometry x="309" y="80" width="135" height="90" as="geometry" />
        </mxCell>
        <mxCell id="UvBgQOkpxf9mwjRvhQFQ-15" value="Visualizar Tarefas em Atraso" style="ellipse;whiteSpace=wrap;html=1;" vertex="1" parent="1">
          <mxGeometry x="309" y="260" width="135" height="90" as="geometry" />
        </mxCell>
        <mxCell id="UvBgQOkpxf9mwjRvhQFQ-16" value="Visualizar Relatório de Entrega" style="ellipse;whiteSpace=wrap;html=1;" vertex="1" parent="1">
          <mxGeometry x="324" y="460" width="105" height="70" as="geometry" />
        </mxCell>
        <mxCell id="UvBgQOkpxf9mwjRvhQFQ-17" value="Visualizar Tarefas Marcadas" style="ellipse;whiteSpace=wrap;html=1;" vertex="1" parent="1">
          <mxGeometry x="316.5" y="360" width="120" height="80" as="geometry" />
        </mxCell>
        <mxCell id="UvBgQOkpxf9mwjRvhQFQ-18" value="Receber notificações para fazer o sumário" style="ellipse;whiteSpace=wrap;html=1;" vertex="1" parent="1">
          <mxGeometry x="303.86" y="540" width="145.29" height="90" as="geometry" />
        </mxCell>
        <mxCell id="UvBgQOkpxf9mwjRvhQFQ-19" value="Notificar Utilizadores Envolvidos" style="ellipse;whiteSpace=wrap;html=1;" vertex="1" parent="1">
          <mxGeometry x="570" y="310" width="135" height="90" as="geometry" />
        </mxCell>
        <mxCell id="UvBgQOkpxf9mwjRvhQFQ-20" value="Include" style="endArrow=open;endSize=12;dashed=1;html=1;rounded=0;entryX=0;entryY=0.5;entryDx=0;entryDy=0;exitX=1;exitY=0.5;exitDx=0;exitDy=0;" edge="1" parent="1" source="UvBgQOkpxf9mwjRvhQFQ-13" target="UvBgQOkpxf9mwjRvhQFQ-19">
          <mxGeometry width="160" relative="1" as="geometry">
            <mxPoint x="572" y="394" as="sourcePoint" />
            <mxPoint x="712" y="355" as="targetPoint" />
          </mxGeometry>
        </mxCell>
        <mxCell id="UvBgQOkpxf9mwjRvhQFQ-21" value="Include" style="endArrow=open;endSize=12;dashed=1;html=1;rounded=0;entryX=0;entryY=0.5;entryDx=0;entryDy=0;exitX=1;exitY=0.5;exitDx=0;exitDy=0;" edge="1" parent="1" source="UvBgQOkpxf9mwjRvhQFQ-18" target="UvBgQOkpxf9mwjRvhQFQ-19">
          <mxGeometry width="160" relative="1" as="geometry">
            <mxPoint x="510" y="440" as="sourcePoint" />
            <mxPoint x="651" y="580" as="targetPoint" />
          </mxGeometry>
        </mxCell>
      </root>
    </mxGraphModel>
  </diagram>
  <diagram name="Diag Atividade - Sistema de notificações" id="3BR1pdaT5rZVzP5ER_bN">
    <mxGraphModel dx="1550" dy="827" grid="1" gridSize="10" guides="1" tooltips="1" connect="1" arrows="1" fold="1" page="1" pageScale="1" pageWidth="827" pageHeight="1169" math="0" shadow="0">
      <root>
        <mxCell id="ZPWFLQRrz3XWhYYay4sd-0" />
        <mxCell id="ZPWFLQRrz3XWhYYay4sd-1" parent="ZPWFLQRrz3XWhYYay4sd-0" />
        <mxCell id="ceuJYHSF9oHO-4qfLH61-0" value="" style="ellipse;html=1;shape=startState;fillColor=#000000;strokeColor=#ff0000;" vertex="1" parent="ZPWFLQRrz3XWhYYay4sd-1">
          <mxGeometry x="-400" y="60" width="30" height="30" as="geometry" />
        </mxCell>
        <mxCell id="ceuJYHSF9oHO-4qfLH61-1" value="" style="edgeStyle=orthogonalEdgeStyle;html=1;verticalAlign=bottom;endArrow=open;endSize=8;strokeColor=#ff0000;rounded=0;" edge="1" source="ceuJYHSF9oHO-4qfLH61-0" parent="ZPWFLQRrz3XWhYYay4sd-1">
          <mxGeometry relative="1" as="geometry">
            <mxPoint x="-385" y="150" as="targetPoint" />
          </mxGeometry>
        </mxCell>
        <mxCell id="ceuJYHSF9oHO-4qfLH61-2" value="sistema" style="text;align=center;fontStyle=1;verticalAlign=middle;spacingLeft=3;spacingRight=3;strokeColor=none;rotatable=0;points=[[0,0.5],[1,0.5]];portConstraint=eastwest;html=1;" vertex="1" parent="ZPWFLQRrz3XWhYYay4sd-1">
          <mxGeometry x="-425" y="30" width="80" height="26" as="geometry" />
        </mxCell>
        <mxCell id="Hec32aCIlmX4uwo3v9Ab-5" style="edgeStyle=orthogonalEdgeStyle;rounded=0;orthogonalLoop=1;jettySize=auto;html=1;strokeColor=#CC0000;" edge="1" parent="ZPWFLQRrz3XWhYYay4sd-1" source="uC_YWrQCKflQcUlKfXO3-0">
          <mxGeometry relative="1" as="geometry">
            <mxPoint x="-385" y="450" as="targetPoint" />
          </mxGeometry>
        </mxCell>
        <mxCell id="uC_YWrQCKflQcUlKfXO3-0" value="Identificar a mudança" style="rounded=1;whiteSpace=wrap;html=1;arcSize=40;fontColor=#000000;fillColor=#ffffc0;strokeColor=#ff0000;" vertex="1" parent="ZPWFLQRrz3XWhYYay4sd-1">
          <mxGeometry x="-445" y="350" width="120" height="40" as="geometry" />
        </mxCell>
        <mxCell id="uC_YWrQCKflQcUlKfXO3-2" value="Login" style="rounded=1;whiteSpace=wrap;html=1;arcSize=40;fontColor=#000000;fillColor=#ffffc0;strokeColor=#ff0000;" vertex="1" parent="ZPWFLQRrz3XWhYYay4sd-1">
          <mxGeometry x="-445" y="150" width="120" height="40" as="geometry" />
        </mxCell>
        <mxCell id="uC_YWrQCKflQcUlKfXO3-3" value="" style="edgeStyle=orthogonalEdgeStyle;html=1;verticalAlign=bottom;endArrow=open;endSize=8;strokeColor=#ff0000;rounded=0;" edge="1" source="uC_YWrQCKflQcUlKfXO3-2" parent="ZPWFLQRrz3XWhYYay4sd-1" target="uC_YWrQCKflQcUlKfXO3-4">
          <mxGeometry relative="1" as="geometry">
            <mxPoint x="-385" y="250" as="targetPoint" />
            <Array as="points">
              <mxPoint x="-385" y="220" />
              <mxPoint x="-384" y="220" />
            </Array>
          </mxGeometry>
        </mxCell>
        <mxCell id="uC_YWrQCKflQcUlKfXO3-5" style="edgeStyle=orthogonalEdgeStyle;rounded=0;orthogonalLoop=1;jettySize=auto;html=1;entryX=0;entryY=0.5;entryDx=0;entryDy=0;strokeColor=#CC0000;" edge="1" parent="ZPWFLQRrz3XWhYYay4sd-1" source="uC_YWrQCKflQcUlKfXO3-4" target="Hec32aCIlmX4uwo3v9Ab-27">
          <mxGeometry relative="1" as="geometry">
            <mxPoint x="-250" y="250" as="targetPoint" />
          </mxGeometry>
        </mxCell>
        <mxCell id="uC_YWrQCKflQcUlKfXO3-7" style="edgeStyle=orthogonalEdgeStyle;rounded=0;orthogonalLoop=1;jettySize=auto;html=1;strokeColor=#CC0000;" edge="1" parent="ZPWFLQRrz3XWhYYay4sd-1" source="uC_YWrQCKflQcUlKfXO3-4">
          <mxGeometry relative="1" as="geometry">
            <mxPoint x="-386" y="350" as="targetPoint" />
          </mxGeometry>
        </mxCell>
        <mxCell id="Hec32aCIlmX4uwo3v9Ab-0" style="edgeStyle=orthogonalEdgeStyle;rounded=0;orthogonalLoop=1;jettySize=auto;html=1;strokeColor=#CC0000;" edge="1" parent="ZPWFLQRrz3XWhYYay4sd-1" source="uC_YWrQCKflQcUlKfXO3-4" target="Hec32aCIlmX4uwo3v9Ab-41">
          <mxGeometry relative="1" as="geometry">
            <mxPoint x="-540" y="250" as="targetPoint" />
          </mxGeometry>
        </mxCell>
        <mxCell id="uC_YWrQCKflQcUlKfXO3-4" value="" style="rhombus;whiteSpace=wrap;html=1;fontColor=#000000;fillColor=#ffffc0;strokeColor=#ff0000;" vertex="1" parent="ZPWFLQRrz3XWhYYay4sd-1">
          <mxGeometry x="-426" y="230" width="80" height="40" as="geometry" />
        </mxCell>
        <mxCell id="uC_YWrQCKflQcUlKfXO3-6" value="formador" style="text;align=center;fontStyle=1;verticalAlign=middle;spacingLeft=3;spacingRight=3;strokeColor=none;rotatable=0;points=[[0,0.5],[1,0.5]];portConstraint=eastwest;html=1;" vertex="1" parent="ZPWFLQRrz3XWhYYay4sd-1">
          <mxGeometry x="-329" y="230" width="80" height="26" as="geometry" />
        </mxCell>
        <mxCell id="uC_YWrQCKflQcUlKfXO3-11" value="formando" style="text;align=center;fontStyle=1;verticalAlign=middle;spacingLeft=3;spacingRight=3;strokeColor=none;rotatable=0;points=[[0,0.5],[1,0.5]];portConstraint=eastwest;html=1;" vertex="1" parent="ZPWFLQRrz3XWhYYay4sd-1">
          <mxGeometry x="-390" y="290" width="80" height="26" as="geometry" />
        </mxCell>
        <mxCell id="Hec32aCIlmX4uwo3v9Ab-2" value="coordenador" style="text;align=center;fontStyle=1;verticalAlign=middle;spacingLeft=3;spacingRight=3;strokeColor=none;rotatable=0;points=[[0,0.5],[1,0.5]];portConstraint=eastwest;html=1;" vertex="1" parent="ZPWFLQRrz3XWhYYay4sd-1">
          <mxGeometry x="-518" y="230" width="80" height="26" as="geometry" />
        </mxCell>
        <mxCell id="Hec32aCIlmX4uwo3v9Ab-8" style="edgeStyle=orthogonalEdgeStyle;rounded=0;orthogonalLoop=1;jettySize=auto;html=1;strokeColor=#CC0000;" edge="1" parent="ZPWFLQRrz3XWhYYay4sd-1" source="Hec32aCIlmX4uwo3v9Ab-6" target="Hec32aCIlmX4uwo3v9Ab-13">
          <mxGeometry relative="1" as="geometry">
            <mxPoint x="-450" y="690" as="targetPoint" />
            <Array as="points">
              <mxPoint x="-450" y="480" />
              <mxPoint x="-450" y="480" />
            </Array>
          </mxGeometry>
        </mxCell>
        <mxCell id="Hec32aCIlmX4uwo3v9Ab-9" style="edgeStyle=orthogonalEdgeStyle;rounded=0;orthogonalLoop=1;jettySize=auto;html=1;" edge="1" parent="ZPWFLQRrz3XWhYYay4sd-1">
          <mxGeometry relative="1" as="geometry">
            <mxPoint x="1020" y="1370" as="targetPoint" />
            <mxPoint x="1020" y="1300" as="sourcePoint" />
            <Array as="points">
              <mxPoint x="1020" y="1335" />
              <mxPoint x="1021" y="1335" />
            </Array>
          </mxGeometry>
        </mxCell>
        <mxCell id="Hec32aCIlmX4uwo3v9Ab-6" value="" style="shape=line;html=1;strokeWidth=6;strokeColor=#ff0000;" vertex="1" parent="ZPWFLQRrz3XWhYYay4sd-1">
          <mxGeometry x="-486" y="450" width="200" height="10" as="geometry" />
        </mxCell>
        <mxCell id="Hec32aCIlmX4uwo3v9Ab-7" value="" style="edgeStyle=orthogonalEdgeStyle;html=1;verticalAlign=bottom;endArrow=open;endSize=8;strokeColor=#ff0000;rounded=0;" edge="1" source="Hec32aCIlmX4uwo3v9Ab-6" parent="ZPWFLQRrz3XWhYYay4sd-1" target="Hec32aCIlmX4uwo3v9Ab-14">
          <mxGeometry relative="1" as="geometry">
            <mxPoint x="-386" y="610" as="targetPoint" />
          </mxGeometry>
        </mxCell>
        <mxCell id="Hec32aCIlmX4uwo3v9Ab-12" style="edgeStyle=orthogonalEdgeStyle;rounded=0;orthogonalLoop=1;jettySize=auto;html=1;strokeColor=#CC0000;" edge="1" parent="ZPWFLQRrz3XWhYYay4sd-1" target="Hec32aCIlmX4uwo3v9Ab-15">
          <mxGeometry relative="1" as="geometry">
            <mxPoint x="-320" y="530" as="targetPoint" />
            <mxPoint x="-320" y="460" as="sourcePoint" />
            <Array as="points">
              <mxPoint x="-320" y="480" />
              <mxPoint x="-320" y="480" />
            </Array>
          </mxGeometry>
        </mxCell>
        <mxCell id="Hec32aCIlmX4uwo3v9Ab-22" style="edgeStyle=orthogonalEdgeStyle;rounded=0;orthogonalLoop=1;jettySize=auto;html=1;strokeColor=#CC0000;" edge="1" parent="ZPWFLQRrz3XWhYYay4sd-1" source="Hec32aCIlmX4uwo3v9Ab-13">
          <mxGeometry relative="1" as="geometry">
            <mxPoint x="-450" y="780" as="targetPoint" />
          </mxGeometry>
        </mxCell>
        <mxCell id="Hec32aCIlmX4uwo3v9Ab-13" value="Notificar tarefas marcadas" style="rounded=1;whiteSpace=wrap;html=1;arcSize=40;fontColor=#000000;fillColor=#ffffc0;strokeColor=#ff0000;" vertex="1" parent="ZPWFLQRrz3XWhYYay4sd-1">
          <mxGeometry x="-510" y="670" width="120" height="40" as="geometry" />
        </mxCell>
        <mxCell id="Hec32aCIlmX4uwo3v9Ab-21" style="edgeStyle=orthogonalEdgeStyle;rounded=0;orthogonalLoop=1;jettySize=auto;html=1;strokeColor=#CC0000;" edge="1" parent="ZPWFLQRrz3XWhYYay4sd-1" source="Hec32aCIlmX4uwo3v9Ab-14">
          <mxGeometry relative="1" as="geometry">
            <mxPoint x="-386" y="780" as="targetPoint" />
          </mxGeometry>
        </mxCell>
        <mxCell id="Hec32aCIlmX4uwo3v9Ab-14" value="Notificar tarefas em atraso" style="rounded=1;whiteSpace=wrap;html=1;arcSize=40;fontColor=#000000;fillColor=#ffffc0;strokeColor=#ff0000;" vertex="1" parent="ZPWFLQRrz3XWhYYay4sd-1">
          <mxGeometry x="-446" y="590" width="120" height="40" as="geometry" />
        </mxCell>
        <mxCell id="Hec32aCIlmX4uwo3v9Ab-20" style="edgeStyle=orthogonalEdgeStyle;rounded=0;orthogonalLoop=1;jettySize=auto;html=1;strokeColor=#CC0000;" edge="1" parent="ZPWFLQRrz3XWhYYay4sd-1" source="Hec32aCIlmX4uwo3v9Ab-15">
          <mxGeometry relative="1" as="geometry">
            <mxPoint x="-320" y="780" as="targetPoint" />
          </mxGeometry>
        </mxCell>
        <mxCell id="Hec32aCIlmX4uwo3v9Ab-15" value="Notificar alterações do cronograma" style="rounded=1;whiteSpace=wrap;html=1;arcSize=40;fontColor=#000000;fillColor=#ffffc0;strokeColor=#ff0000;" vertex="1" parent="ZPWFLQRrz3XWhYYay4sd-1">
          <mxGeometry x="-380" y="520" width="120" height="40" as="geometry" />
        </mxCell>
        <mxCell id="Hec32aCIlmX4uwo3v9Ab-24" value="" style="shape=line;html=1;strokeWidth=6;strokeColor=#ff0000;" vertex="1" parent="ZPWFLQRrz3XWhYYay4sd-1">
          <mxGeometry x="-485" y="780" width="200" height="10" as="geometry" />
        </mxCell>
        <mxCell id="Hec32aCIlmX4uwo3v9Ab-25" value="" style="edgeStyle=orthogonalEdgeStyle;html=1;verticalAlign=bottom;endArrow=open;endSize=8;strokeColor=#ff0000;rounded=0;" edge="1" source="Hec32aCIlmX4uwo3v9Ab-24" parent="ZPWFLQRrz3XWhYYay4sd-1" target="Hec32aCIlmX4uwo3v9Ab-26">
          <mxGeometry relative="1" as="geometry">
            <mxPoint x="-385" y="860" as="targetPoint" />
          </mxGeometry>
        </mxCell>
        <mxCell id="Hec32aCIlmX4uwo3v9Ab-26" value="" style="ellipse;html=1;shape=endState;fillColor=#000000;strokeColor=#ff0000;" vertex="1" parent="ZPWFLQRrz3XWhYYay4sd-1">
          <mxGeometry x="-400" y="845" width="30" height="30" as="geometry" />
        </mxCell>
        <mxCell id="Hec32aCIlmX4uwo3v9Ab-29" style="edgeStyle=orthogonalEdgeStyle;rounded=0;orthogonalLoop=1;jettySize=auto;html=1;strokeColor=#CC0000;" edge="1" parent="ZPWFLQRrz3XWhYYay4sd-1" source="Hec32aCIlmX4uwo3v9Ab-27">
          <mxGeometry relative="1" as="geometry">
            <mxPoint x="-70" y="400" as="targetPoint" />
          </mxGeometry>
        </mxCell>
        <mxCell id="Hec32aCIlmX4uwo3v9Ab-27" value="Identificar a mudança" style="rounded=1;whiteSpace=wrap;html=1;arcSize=40;fontColor=#000000;fillColor=#ffffc0;strokeColor=#ff0000;" vertex="1" parent="ZPWFLQRrz3XWhYYay4sd-1">
          <mxGeometry x="-130" y="230" width="120" height="40" as="geometry" />
        </mxCell>
        <mxCell id="Hec32aCIlmX4uwo3v9Ab-30" value="" style="shape=line;html=1;strokeWidth=6;strokeColor=#ff0000;" vertex="1" parent="ZPWFLQRrz3XWhYYay4sd-1">
          <mxGeometry x="-170" y="400" width="200" height="10" as="geometry" />
        </mxCell>
        <mxCell id="Hec32aCIlmX4uwo3v9Ab-31" value="" style="edgeStyle=orthogonalEdgeStyle;html=1;verticalAlign=bottom;endArrow=open;endSize=8;strokeColor=#ff0000;rounded=0;" edge="1" parent="ZPWFLQRrz3XWhYYay4sd-1" target="Hec32aCIlmX4uwo3v9Ab-32">
          <mxGeometry relative="1" as="geometry">
            <mxPoint x="-22" y="480" as="targetPoint" />
            <mxPoint x="-22" y="410" as="sourcePoint" />
          </mxGeometry>
        </mxCell>
        <mxCell id="Hec32aCIlmX4uwo3v9Ab-37" style="edgeStyle=orthogonalEdgeStyle;rounded=0;orthogonalLoop=1;jettySize=auto;html=1;strokeColor=#CC0000;" edge="1" parent="ZPWFLQRrz3XWhYYay4sd-1" source="Hec32aCIlmX4uwo3v9Ab-32">
          <mxGeometry relative="1" as="geometry">
            <mxPoint x="-22" y="780" as="targetPoint" />
          </mxGeometry>
        </mxCell>
        <mxCell id="Hec32aCIlmX4uwo3v9Ab-32" value="Notificar tarefa entrega" style="rounded=1;whiteSpace=wrap;html=1;arcSize=40;fontColor=#000000;fillColor=#ffffc0;strokeColor=#ff0000;" vertex="1" parent="ZPWFLQRrz3XWhYYay4sd-1">
          <mxGeometry x="-82" y="510" width="120" height="40" as="geometry" />
        </mxCell>
        <mxCell id="Hec32aCIlmX4uwo3v9Ab-34" style="edgeStyle=orthogonalEdgeStyle;rounded=0;orthogonalLoop=1;jettySize=auto;html=1;strokeColor=#CC0000;" edge="1" parent="ZPWFLQRrz3XWhYYay4sd-1" target="Hec32aCIlmX4uwo3v9Ab-35">
          <mxGeometry relative="1" as="geometry">
            <mxPoint x="-115" y="618" as="targetPoint" />
            <mxPoint x="-115" y="408" as="sourcePoint" />
            <Array as="points">
              <mxPoint x="-115" y="428" />
              <mxPoint x="-115" y="428" />
            </Array>
          </mxGeometry>
        </mxCell>
        <mxCell id="Hec32aCIlmX4uwo3v9Ab-36" style="edgeStyle=orthogonalEdgeStyle;rounded=0;orthogonalLoop=1;jettySize=auto;html=1;strokeColor=#CC0000;" edge="1" parent="ZPWFLQRrz3XWhYYay4sd-1" source="Hec32aCIlmX4uwo3v9Ab-35">
          <mxGeometry relative="1" as="geometry">
            <mxPoint x="-115" y="780" as="targetPoint" />
          </mxGeometry>
        </mxCell>
        <mxCell id="Hec32aCIlmX4uwo3v9Ab-35" value="Notificar alterações de cronograma" style="rounded=1;whiteSpace=wrap;html=1;arcSize=40;fontColor=#000000;fillColor=#ffffc0;strokeColor=#ff0000;" vertex="1" parent="ZPWFLQRrz3XWhYYay4sd-1">
          <mxGeometry x="-175" y="598" width="120" height="40" as="geometry" />
        </mxCell>
        <mxCell id="Hec32aCIlmX4uwo3v9Ab-38" value="" style="shape=line;html=1;strokeWidth=6;strokeColor=#ff0000;" vertex="1" parent="ZPWFLQRrz3XWhYYay4sd-1">
          <mxGeometry x="-170" y="780" width="200" height="10" as="geometry" />
        </mxCell>
        <mxCell id="Hec32aCIlmX4uwo3v9Ab-39" value="" style="edgeStyle=orthogonalEdgeStyle;html=1;verticalAlign=bottom;endArrow=open;endSize=8;strokeColor=#ff0000;rounded=0;" edge="1" source="Hec32aCIlmX4uwo3v9Ab-38" parent="ZPWFLQRrz3XWhYYay4sd-1" target="Hec32aCIlmX4uwo3v9Ab-40">
          <mxGeometry relative="1" as="geometry">
            <mxPoint x="-70" y="860" as="targetPoint" />
          </mxGeometry>
        </mxCell>
        <mxCell id="Hec32aCIlmX4uwo3v9Ab-40" value="" style="ellipse;html=1;shape=endState;fillColor=#000000;strokeColor=#ff0000;" vertex="1" parent="ZPWFLQRrz3XWhYYay4sd-1">
          <mxGeometry x="-85" y="845" width="30" height="30" as="geometry" />
        </mxCell>
        <mxCell id="Hec32aCIlmX4uwo3v9Ab-42" style="edgeStyle=orthogonalEdgeStyle;rounded=0;orthogonalLoop=1;jettySize=auto;html=1;strokeColor=#CC0000;" edge="1" parent="ZPWFLQRrz3XWhYYay4sd-1" source="Hec32aCIlmX4uwo3v9Ab-41">
          <mxGeometry relative="1" as="geometry">
            <mxPoint x="-680" y="400" as="targetPoint" />
          </mxGeometry>
        </mxCell>
        <mxCell id="Hec32aCIlmX4uwo3v9Ab-41" value="Identificar a mudança" style="rounded=1;whiteSpace=wrap;html=1;arcSize=40;fontColor=#000000;fillColor=#ffffc0;strokeColor=#ff0000;" vertex="1" parent="ZPWFLQRrz3XWhYYay4sd-1">
          <mxGeometry x="-740" y="230" width="120" height="40" as="geometry" />
        </mxCell>
        <mxCell id="Hec32aCIlmX4uwo3v9Ab-45" style="edgeStyle=orthogonalEdgeStyle;rounded=0;orthogonalLoop=1;jettySize=auto;html=1;strokeColor=#CC0000;" edge="1" parent="ZPWFLQRrz3XWhYYay4sd-1" source="Hec32aCIlmX4uwo3v9Ab-43" target="Hec32aCIlmX4uwo3v9Ab-46">
          <mxGeometry relative="1" as="geometry">
            <mxPoint x="-680" y="550" as="targetPoint" />
          </mxGeometry>
        </mxCell>
        <mxCell id="Hec32aCIlmX4uwo3v9Ab-43" value="" style="shape=line;html=1;strokeWidth=6;strokeColor=#ff0000;" vertex="1" parent="ZPWFLQRrz3XWhYYay4sd-1">
          <mxGeometry x="-780" y="400" width="200" height="10" as="geometry" />
        </mxCell>
        <mxCell id="Hec32aCIlmX4uwo3v9Ab-47" style="edgeStyle=orthogonalEdgeStyle;rounded=0;orthogonalLoop=1;jettySize=auto;html=1;strokeColor=#CC0000;" edge="1" parent="ZPWFLQRrz3XWhYYay4sd-1" source="Hec32aCIlmX4uwo3v9Ab-46" target="Hec32aCIlmX4uwo3v9Ab-48">
          <mxGeometry relative="1" as="geometry">
            <mxPoint x="-680" y="680" as="targetPoint" />
          </mxGeometry>
        </mxCell>
        <mxCell id="Hec32aCIlmX4uwo3v9Ab-46" value="Notificar alterações no calendário de disponibiliadde" style="rounded=1;whiteSpace=wrap;html=1;arcSize=40;fontColor=#000000;fillColor=#ffffc0;strokeColor=#ff0000;" vertex="1" parent="ZPWFLQRrz3XWhYYay4sd-1">
          <mxGeometry x="-755" y="530" width="150" height="60" as="geometry" />
        </mxCell>
        <mxCell id="Hec32aCIlmX4uwo3v9Ab-48" value="" style="ellipse;html=1;shape=endState;fillColor=#000000;strokeColor=#ff0000;" vertex="1" parent="ZPWFLQRrz3XWhYYay4sd-1">
          <mxGeometry x="-695" y="665" width="30" height="30" as="geometry" />
        </mxCell>
      </root>
    </mxGraphModel>
  </diagram>
  <diagram id="TSrUB9P_BY0f61mKUwCO" name="Diag Classes">
    <mxGraphModel dx="1434" dy="836" grid="1" gridSize="10" guides="1" tooltips="1" connect="1" arrows="1" fold="1" page="1" pageScale="1" pageWidth="827" pageHeight="1169" math="0" shadow="0">
      <root>
        <mxCell id="0" />
        <mxCell id="1" parent="0" />
        <mxCell id="xtpFS0kODumkPLvUpkfr-89" style="edgeStyle=orthogonalEdgeStyle;rounded=0;orthogonalLoop=1;jettySize=auto;html=1;entryX=-0.013;entryY=0.253;entryDx=0;entryDy=0;entryPerimeter=0;" parent="1" source="xtpFS0kODumkPLvUpkfr-25" target="xtpFS0kODumkPLvUpkfr-82" edge="1">
          <mxGeometry relative="1" as="geometry">
            <Array as="points">
              <mxPoint x="340" y="210" />
              <mxPoint x="440" y="210" />
              <mxPoint x="440" y="100" />
            </Array>
          </mxGeometry>
        </mxCell>
        <mxCell id="1VT8oy9qQ1jSmQHFDdlB-1" value="Utilizador" style="swimlane;fontStyle=1;align=center;verticalAlign=top;childLayout=stackLayout;horizontal=1;startSize=26;horizontalStack=0;resizeParent=1;resizeParentMax=0;resizeLast=0;collapsible=1;marginBottom=0;whiteSpace=wrap;html=1;" parent="1" vertex="1">
          <mxGeometry x="20" y="297" width="160" height="140" as="geometry" />
        </mxCell>
        <mxCell id="1VT8oy9qQ1jSmQHFDdlB-2" value="+ ID: int&lt;br&gt;+ Nome: String&lt;br&gt;+ E-mail: String&lt;br&gt;+ Password: String" style="text;strokeColor=none;fillColor=none;align=left;verticalAlign=top;spacingLeft=4;spacingRight=4;overflow=hidden;rotatable=0;points=[[0,0.5],[1,0.5]];portConstraint=eastwest;whiteSpace=wrap;html=1;" parent="1VT8oy9qQ1jSmQHFDdlB-1" vertex="1">
          <mxGeometry y="26" width="160" height="64" as="geometry" />
        </mxCell>
        <mxCell id="1VT8oy9qQ1jSmQHFDdlB-3" value="" style="line;strokeWidth=1;fillColor=none;align=left;verticalAlign=middle;spacingTop=-1;spacingLeft=3;spacingRight=3;rotatable=0;labelPosition=right;points=[];portConstraint=eastwest;strokeColor=inherit;" parent="1VT8oy9qQ1jSmQHFDdlB-1" vertex="1">
          <mxGeometry y="90" width="160" height="8" as="geometry" />
        </mxCell>
        <mxCell id="1VT8oy9qQ1jSmQHFDdlB-4" value="+ alterarDados(): Integer&lt;br&gt;+ Registar():" style="text;strokeColor=none;fillColor=none;align=left;verticalAlign=top;spacingLeft=4;spacingRight=4;overflow=hidden;rotatable=0;points=[[0,0.5],[1,0.5]];portConstraint=eastwest;whiteSpace=wrap;html=1;" parent="1VT8oy9qQ1jSmQHFDdlB-1" vertex="1">
          <mxGeometry y="98" width="160" height="42" as="geometry" />
        </mxCell>
        <mxCell id="xtpFS0kODumkPLvUpkfr-66" style="edgeStyle=orthogonalEdgeStyle;rounded=0;orthogonalLoop=1;jettySize=auto;html=1;entryX=0.5;entryY=0;entryDx=0;entryDy=0;" parent="1" source="xtpFS0kODumkPLvUpkfr-25" target="xtpFS0kODumkPLvUpkfr-54" edge="1">
          <mxGeometry relative="1" as="geometry" />
        </mxCell>
        <mxCell id="xtpFS0kODumkPLvUpkfr-25" value="Coordenador" style="swimlane;fontStyle=0;childLayout=stackLayout;horizontal=1;startSize=26;fillColor=none;horizontalStack=0;resizeParent=1;resizeParentMax=0;resizeLast=0;collapsible=1;marginBottom=0;whiteSpace=wrap;html=1;" parent="1" vertex="1">
          <mxGeometry x="260" y="220" width="160" height="110" as="geometry" />
        </mxCell>
        <mxCell id="xtpFS0kODumkPLvUpkfr-26" value="+ CriarContaFormador()" style="text;strokeColor=none;fillColor=none;align=left;verticalAlign=top;spacingLeft=4;spacingRight=4;overflow=hidden;rotatable=0;points=[[0,0.5],[1,0.5]];portConstraint=eastwest;whiteSpace=wrap;html=1;" parent="xtpFS0kODumkPLvUpkfr-25" vertex="1">
          <mxGeometry y="26" width="160" height="26" as="geometry" />
        </mxCell>
        <mxCell id="xtpFS0kODumkPLvUpkfr-27" value="+ CriarContaFormando()&lt;br&gt;&lt;br&gt;+CriarCronograma()" style="text;strokeColor=none;fillColor=none;align=left;verticalAlign=top;spacingLeft=4;spacingRight=4;overflow=hidden;rotatable=0;points=[[0,0.5],[1,0.5]];portConstraint=eastwest;whiteSpace=wrap;html=1;" parent="xtpFS0kODumkPLvUpkfr-25" vertex="1">
          <mxGeometry y="52" width="160" height="58" as="geometry" />
        </mxCell>
        <mxCell id="xtpFS0kODumkPLvUpkfr-50" style="edgeStyle=orthogonalEdgeStyle;rounded=0;orthogonalLoop=1;jettySize=auto;html=1;" parent="1" source="xtpFS0kODumkPLvUpkfr-29" target="xtpFS0kODumkPLvUpkfr-46" edge="1">
          <mxGeometry relative="1" as="geometry" />
        </mxCell>
        <mxCell id="xtpFS0kODumkPLvUpkfr-29" value="Formador" style="swimlane;fontStyle=0;childLayout=stackLayout;horizontal=1;startSize=26;fillColor=none;horizontalStack=0;resizeParent=1;resizeParentMax=0;resizeLast=0;collapsible=1;marginBottom=0;whiteSpace=wrap;html=1;" parent="1" vertex="1">
          <mxGeometry x="260" y="350" width="140" height="78" as="geometry" />
        </mxCell>
        <mxCell id="xtpFS0kODumkPLvUpkfr-30" value="+ CriarTarefas()" style="text;strokeColor=none;fillColor=none;align=left;verticalAlign=top;spacingLeft=4;spacingRight=4;overflow=hidden;rotatable=0;points=[[0,0.5],[1,0.5]];portConstraint=eastwest;whiteSpace=wrap;html=1;" parent="xtpFS0kODumkPLvUpkfr-29" vertex="1">
          <mxGeometry y="26" width="140" height="26" as="geometry" />
        </mxCell>
        <mxCell id="xtpFS0kODumkPLvUpkfr-31" value="+ CrudDisponibilidade()" style="text;strokeColor=none;fillColor=none;align=left;verticalAlign=top;spacingLeft=4;spacingRight=4;overflow=hidden;rotatable=0;points=[[0,0.5],[1,0.5]];portConstraint=eastwest;whiteSpace=wrap;html=1;" parent="xtpFS0kODumkPLvUpkfr-29" vertex="1">
          <mxGeometry y="52" width="140" height="26" as="geometry" />
        </mxCell>
        <mxCell id="xtpFS0kODumkPLvUpkfr-33" value="Formando" style="swimlane;fontStyle=0;childLayout=stackLayout;horizontal=1;startSize=26;fillColor=none;horizontalStack=0;resizeParent=1;resizeParentMax=0;resizeLast=0;collapsible=1;marginBottom=0;whiteSpace=wrap;html=1;" parent="1" vertex="1">
          <mxGeometry x="260" y="460" width="150" height="78" as="geometry" />
        </mxCell>
        <mxCell id="xtpFS0kODumkPLvUpkfr-34" value="+ EntregarTareda()" style="text;strokeColor=none;fillColor=none;align=left;verticalAlign=top;spacingLeft=4;spacingRight=4;overflow=hidden;rotatable=0;points=[[0,0.5],[1,0.5]];portConstraint=eastwest;whiteSpace=wrap;html=1;" parent="xtpFS0kODumkPLvUpkfr-33" vertex="1">
          <mxGeometry y="26" width="150" height="26" as="geometry" />
        </mxCell>
        <mxCell id="xtpFS0kODumkPLvUpkfr-35" value="+ VisualizarCronograma()" style="text;strokeColor=none;fillColor=none;align=left;verticalAlign=top;spacingLeft=4;spacingRight=4;overflow=hidden;rotatable=0;points=[[0,0.5],[1,0.5]];portConstraint=eastwest;whiteSpace=wrap;html=1;" parent="xtpFS0kODumkPLvUpkfr-33" vertex="1">
          <mxGeometry y="52" width="150" height="26" as="geometry" />
        </mxCell>
        <mxCell id="xtpFS0kODumkPLvUpkfr-38" style="edgeStyle=orthogonalEdgeStyle;rounded=0;orthogonalLoop=1;jettySize=auto;html=1;entryX=1.011;entryY=0.586;entryDx=0;entryDy=0;entryPerimeter=0;endArrow=block;endFill=0;" parent="1" source="xtpFS0kODumkPLvUpkfr-10" target="1VT8oy9qQ1jSmQHFDdlB-2" edge="1">
          <mxGeometry relative="1" as="geometry" />
        </mxCell>
        <mxCell id="xtpFS0kODumkPLvUpkfr-39" style="edgeStyle=orthogonalEdgeStyle;rounded=0;orthogonalLoop=1;jettySize=auto;html=1;entryX=1.011;entryY=0.586;entryDx=0;entryDy=0;entryPerimeter=0;endArrow=block;endFill=0;" parent="1" source="xtpFS0kODumkPLvUpkfr-26" target="1VT8oy9qQ1jSmQHFDdlB-2" edge="1">
          <mxGeometry relative="1" as="geometry" />
        </mxCell>
        <mxCell id="xtpFS0kODumkPLvUpkfr-40" style="edgeStyle=orthogonalEdgeStyle;rounded=0;orthogonalLoop=1;jettySize=auto;html=1;entryX=1.017;entryY=0.586;entryDx=0;entryDy=0;entryPerimeter=0;endArrow=block;endFill=0;" parent="1" source="xtpFS0kODumkPLvUpkfr-31" target="1VT8oy9qQ1jSmQHFDdlB-2" edge="1">
          <mxGeometry relative="1" as="geometry" />
        </mxCell>
        <mxCell id="xtpFS0kODumkPLvUpkfr-41" style="edgeStyle=orthogonalEdgeStyle;rounded=0;orthogonalLoop=1;jettySize=auto;html=1;entryX=0.991;entryY=0.586;entryDx=0;entryDy=0;entryPerimeter=0;strokeColor=none;endArrow=classic;endFill=0;" parent="1" source="xtpFS0kODumkPLvUpkfr-35" target="1VT8oy9qQ1jSmQHFDdlB-2" edge="1">
          <mxGeometry relative="1" as="geometry" />
        </mxCell>
        <mxCell id="xtpFS0kODumkPLvUpkfr-43" style="edgeStyle=orthogonalEdgeStyle;rounded=0;orthogonalLoop=1;jettySize=auto;html=1;entryX=1.022;entryY=0.586;entryDx=0;entryDy=0;entryPerimeter=0;endArrow=block;endFill=0;" parent="1" source="xtpFS0kODumkPLvUpkfr-35" target="1VT8oy9qQ1jSmQHFDdlB-2" edge="1">
          <mxGeometry relative="1" as="geometry" />
        </mxCell>
        <mxCell id="xtpFS0kODumkPLvUpkfr-45" value="UFCD" style="swimlane;fontStyle=0;childLayout=stackLayout;horizontal=1;startSize=26;fillColor=none;horizontalStack=0;resizeParent=1;resizeParentMax=0;resizeLast=0;collapsible=1;marginBottom=0;whiteSpace=wrap;html=1;" parent="1" vertex="1">
          <mxGeometry x="560" y="350" width="140" height="140" as="geometry" />
        </mxCell>
        <mxCell id="xtpFS0kODumkPLvUpkfr-46" value="+ ID: Integer" style="text;strokeColor=none;fillColor=none;align=left;verticalAlign=top;spacingLeft=4;spacingRight=4;overflow=hidden;rotatable=0;points=[[0,0.5],[1,0.5]];portConstraint=eastwest;whiteSpace=wrap;html=1;" parent="xtpFS0kODumkPLvUpkfr-45" vertex="1">
          <mxGeometry y="26" width="140" height="26" as="geometry" />
        </mxCell>
        <mxCell id="xtpFS0kODumkPLvUpkfr-47" value="+ Nome: String" style="text;strokeColor=none;fillColor=none;align=left;verticalAlign=top;spacingLeft=4;spacingRight=4;overflow=hidden;rotatable=0;points=[[0,0.5],[1,0.5]];portConstraint=eastwest;whiteSpace=wrap;html=1;" parent="xtpFS0kODumkPLvUpkfr-45" vertex="1">
          <mxGeometry y="52" width="140" height="26" as="geometry" />
        </mxCell>
        <mxCell id="xtpFS0kODumkPLvUpkfr-48" value="+ Duração: Time&lt;br&gt;&lt;br&gt;+ Data de Início: Date&amp;nbsp;" style="text;strokeColor=none;fillColor=none;align=left;verticalAlign=top;spacingLeft=4;spacingRight=4;overflow=hidden;rotatable=0;points=[[0,0.5],[1,0.5]];portConstraint=eastwest;whiteSpace=wrap;html=1;" parent="xtpFS0kODumkPLvUpkfr-45" vertex="1">
          <mxGeometry y="78" width="140" height="62" as="geometry" />
        </mxCell>
        <mxCell id="xtpFS0kODumkPLvUpkfr-51" value="Leciona" style="text;align=center;fontStyle=1;verticalAlign=middle;spacingLeft=3;spacingRight=3;strokeColor=none;rotatable=0;points=[[0,0.5],[1,0.5]];portConstraint=eastwest;html=1;" parent="1" vertex="1">
          <mxGeometry x="442.5" y="366" width="80" height="26" as="geometry" />
        </mxCell>
        <mxCell id="xtpFS0kODumkPLvUpkfr-52" value="1..*" style="text;align=center;fontStyle=1;verticalAlign=middle;spacingLeft=3;spacingRight=3;strokeColor=none;rotatable=0;points=[[0,0.5],[1,0.5]];portConstraint=eastwest;html=1;" parent="1" vertex="1">
          <mxGeometry x="374" y="366" width="80" height="26" as="geometry" />
        </mxCell>
        <mxCell id="xtpFS0kODumkPLvUpkfr-53" value="1..*" style="text;align=center;fontStyle=1;verticalAlign=middle;spacingLeft=3;spacingRight=3;strokeColor=none;rotatable=0;points=[[0,0.5],[1,0.5]];portConstraint=eastwest;html=1;" parent="1" vertex="1">
          <mxGeometry x="502" y="367" width="80" height="26" as="geometry" />
        </mxCell>
        <mxCell id="xtpFS0kODumkPLvUpkfr-54" value="Curso" style="swimlane;fontStyle=0;childLayout=stackLayout;horizontal=1;startSize=26;fillColor=none;horizontalStack=0;resizeParent=1;resizeParentMax=0;resizeLast=0;collapsible=1;marginBottom=0;whiteSpace=wrap;html=1;" parent="1" vertex="1">
          <mxGeometry x="860" y="350" width="160" height="190" as="geometry" />
        </mxCell>
        <mxCell id="xtpFS0kODumkPLvUpkfr-55" value="+ ID: Integer" style="text;strokeColor=none;fillColor=none;align=left;verticalAlign=top;spacingLeft=4;spacingRight=4;overflow=hidden;rotatable=0;points=[[0,0.5],[1,0.5]];portConstraint=eastwest;whiteSpace=wrap;html=1;" parent="xtpFS0kODumkPLvUpkfr-54" vertex="1">
          <mxGeometry y="26" width="160" height="26" as="geometry" />
        </mxCell>
        <mxCell id="xtpFS0kODumkPLvUpkfr-106" style="edgeStyle=orthogonalEdgeStyle;rounded=0;orthogonalLoop=1;jettySize=auto;html=1;" parent="xtpFS0kODumkPLvUpkfr-54" source="xtpFS0kODumkPLvUpkfr-56" edge="1">
          <mxGeometry relative="1" as="geometry">
            <mxPoint x="270" y="65" as="targetPoint" />
          </mxGeometry>
        </mxCell>
        <mxCell id="xtpFS0kODumkPLvUpkfr-56" value="+ Nome: String" style="text;strokeColor=none;fillColor=none;align=left;verticalAlign=top;spacingLeft=4;spacingRight=4;overflow=hidden;rotatable=0;points=[[0,0.5],[1,0.5]];portConstraint=eastwest;whiteSpace=wrap;html=1;" parent="xtpFS0kODumkPLvUpkfr-54" vertex="1">
          <mxGeometry y="52" width="160" height="26" as="geometry" />
        </mxCell>
        <mxCell id="xtpFS0kODumkPLvUpkfr-57" value="+ ID_Coordenador: Integer&lt;br&gt;&lt;br&gt;+ ID_Formador: Integer&lt;br&gt;&lt;br&gt;+ ID_Formando: Integer" style="text;strokeColor=none;fillColor=none;align=left;verticalAlign=top;spacingLeft=4;spacingRight=4;overflow=hidden;rotatable=0;points=[[0,0.5],[1,0.5]];portConstraint=eastwest;whiteSpace=wrap;html=1;" parent="xtpFS0kODumkPLvUpkfr-54" vertex="1">
          <mxGeometry y="78" width="160" height="112" as="geometry" />
        </mxCell>
        <mxCell id="xtpFS0kODumkPLvUpkfr-59" value="1..*" style="text;align=center;fontStyle=1;verticalAlign=middle;spacingLeft=3;spacingRight=3;strokeColor=none;rotatable=0;points=[[0,0.5],[1,0.5]];portConstraint=eastwest;html=1;" parent="1" vertex="1">
          <mxGeometry x="801" y="437" width="80" height="26" as="geometry" />
        </mxCell>
        <mxCell id="xtpFS0kODumkPLvUpkfr-62" value="1..*" style="text;align=center;fontStyle=1;verticalAlign=middle;spacingLeft=3;spacingRight=3;strokeColor=none;rotatable=0;points=[[0,0.5],[1,0.5]];portConstraint=eastwest;html=1;" parent="1" vertex="1">
          <mxGeometry x="674" y="437" width="80" height="26" as="geometry" />
        </mxCell>
        <mxCell id="xtpFS0kODumkPLvUpkfr-63" value="Pertence" style="text;align=center;fontStyle=1;verticalAlign=middle;spacingLeft=3;spacingRight=3;strokeColor=none;rotatable=0;points=[[0,0.5],[1,0.5]];portConstraint=eastwest;html=1;" parent="1" vertex="1">
          <mxGeometry x="747" y="460" width="80" height="26" as="geometry" />
        </mxCell>
        <mxCell id="xtpFS0kODumkPLvUpkfr-67" style="edgeStyle=orthogonalEdgeStyle;rounded=0;orthogonalLoop=1;jettySize=auto;html=1;entryX=0.447;entryY=1.004;entryDx=0;entryDy=0;entryPerimeter=0;exitX=0.466;exitY=1;exitDx=0;exitDy=0;exitPerimeter=0;" parent="1" source="xtpFS0kODumkPLvUpkfr-35" target="xtpFS0kODumkPLvUpkfr-57" edge="1">
          <mxGeometry relative="1" as="geometry">
            <mxPoint x="330" y="564" as="sourcePoint" />
            <Array as="points">
              <mxPoint x="330" y="610" />
              <mxPoint x="932" y="610" />
            </Array>
          </mxGeometry>
        </mxCell>
        <mxCell id="xtpFS0kODumkPLvUpkfr-69" style="edgeStyle=orthogonalEdgeStyle;rounded=0;orthogonalLoop=1;jettySize=auto;html=1;entryX=0.015;entryY=0.275;entryDx=0;entryDy=0;entryPerimeter=0;" parent="1" edge="1">
          <mxGeometry relative="1" as="geometry">
            <mxPoint x="699" y="459" as="sourcePoint" />
            <mxPoint x="861.4000000000001" y="458.8000000000002" as="targetPoint" />
          </mxGeometry>
        </mxCell>
        <mxCell id="xtpFS0kODumkPLvUpkfr-70" value="Coordena" style="text;align=center;fontStyle=1;verticalAlign=middle;spacingLeft=3;spacingRight=3;strokeColor=none;rotatable=0;points=[[0,0.5],[1,0.5]];portConstraint=eastwest;html=1;" parent="1" vertex="1">
          <mxGeometry x="630" y="250" width="80" height="26" as="geometry" />
        </mxCell>
        <mxCell id="xtpFS0kODumkPLvUpkfr-71" value="1..1" style="text;align=center;fontStyle=1;verticalAlign=middle;spacingLeft=3;spacingRight=3;strokeColor=none;rotatable=0;points=[[0,0.5],[1,0.5]];portConstraint=eastwest;html=1;" parent="1" vertex="1">
          <mxGeometry x="400" y="250" width="80" height="26" as="geometry" />
        </mxCell>
        <mxCell id="xtpFS0kODumkPLvUpkfr-72" value="1..1" style="text;align=center;fontStyle=1;verticalAlign=middle;spacingLeft=3;spacingRight=3;strokeColor=none;rotatable=0;points=[[0,0.5],[1,0.5]];portConstraint=eastwest;html=1;" parent="1" vertex="1">
          <mxGeometry x="920" y="324" width="80" height="26" as="geometry" />
        </mxCell>
        <mxCell id="xtpFS0kODumkPLvUpkfr-73" value="Pertence" style="text;align=center;fontStyle=1;verticalAlign=middle;spacingLeft=3;spacingRight=3;strokeColor=none;rotatable=0;points=[[0,0.5],[1,0.5]];portConstraint=eastwest;html=1;" parent="1" vertex="1">
          <mxGeometry x="590" y="585" width="80" height="26" as="geometry" />
        </mxCell>
        <mxCell id="xtpFS0kODumkPLvUpkfr-74" value="1..*" style="text;align=center;fontStyle=1;verticalAlign=middle;spacingLeft=3;spacingRight=3;strokeColor=none;rotatable=0;points=[[0,0.5],[1,0.5]];portConstraint=eastwest;html=1;" parent="1" vertex="1">
          <mxGeometry x="300" y="550" width="80" height="26" as="geometry" />
        </mxCell>
        <mxCell id="xtpFS0kODumkPLvUpkfr-75" value="1..*" style="text;align=center;fontStyle=1;verticalAlign=middle;spacingLeft=3;spacingRight=3;strokeColor=none;rotatable=0;points=[[0,0.5],[1,0.5]];portConstraint=eastwest;html=1;" parent="1" vertex="1">
          <mxGeometry x="910" y="550" width="80" height="26" as="geometry" />
        </mxCell>
        <mxCell id="xtpFS0kODumkPLvUpkfr-80" style="edgeStyle=orthogonalEdgeStyle;rounded=0;orthogonalLoop=1;jettySize=auto;html=1;dashed=1;endArrow=none;endFill=0;" parent="1" source="xtpFS0kODumkPLvUpkfr-76" edge="1">
          <mxGeometry relative="1" as="geometry">
            <mxPoint x="787" y="460" as="targetPoint" />
          </mxGeometry>
        </mxCell>
        <mxCell id="xtpFS0kODumkPLvUpkfr-76" value="Tarefa" style="swimlane;fontStyle=0;childLayout=stackLayout;horizontal=1;startSize=26;fillColor=none;horizontalStack=0;resizeParent=1;resizeParentMax=0;resizeLast=0;collapsible=1;marginBottom=0;whiteSpace=wrap;html=1;" parent="1" vertex="1">
          <mxGeometry x="970" y="170" width="140" height="140" as="geometry" />
        </mxCell>
        <mxCell id="xtpFS0kODumkPLvUpkfr-77" value="+ ID: Interger" style="text;strokeColor=none;fillColor=none;align=left;verticalAlign=top;spacingLeft=4;spacingRight=4;overflow=hidden;rotatable=0;points=[[0,0.5],[1,0.5]];portConstraint=eastwest;whiteSpace=wrap;html=1;" parent="xtpFS0kODumkPLvUpkfr-76" vertex="1">
          <mxGeometry y="26" width="140" height="26" as="geometry" />
        </mxCell>
        <mxCell id="xtpFS0kODumkPLvUpkfr-78" value="+ ID_Curso: Interger" style="text;strokeColor=none;fillColor=none;align=left;verticalAlign=top;spacingLeft=4;spacingRight=4;overflow=hidden;rotatable=0;points=[[0,0.5],[1,0.5]];portConstraint=eastwest;whiteSpace=wrap;html=1;" parent="xtpFS0kODumkPLvUpkfr-76" vertex="1">
          <mxGeometry y="52" width="140" height="26" as="geometry" />
        </mxCell>
        <mxCell id="xtpFS0kODumkPLvUpkfr-79" value="+ ID_UFCD: Interger&lt;br&gt;&lt;br&gt;+ ID_Formador: Interger" style="text;strokeColor=none;fillColor=none;align=left;verticalAlign=top;spacingLeft=4;spacingRight=4;overflow=hidden;rotatable=0;points=[[0,0.5],[1,0.5]];portConstraint=eastwest;whiteSpace=wrap;html=1;" parent="xtpFS0kODumkPLvUpkfr-76" vertex="1">
          <mxGeometry y="78" width="140" height="62" as="geometry" />
        </mxCell>
        <mxCell id="xtpFS0kODumkPLvUpkfr-81" value="Disponibilidade" style="swimlane;fontStyle=0;childLayout=stackLayout;horizontal=1;startSize=26;fillColor=none;horizontalStack=0;resizeParent=1;resizeParentMax=0;resizeLast=0;collapsible=1;marginBottom=0;whiteSpace=wrap;html=1;" parent="1" vertex="1">
          <mxGeometry x="472" y="60" width="140" height="80" as="geometry" />
        </mxCell>
        <mxCell id="xtpFS0kODumkPLvUpkfr-82" value="+ ID: Integer&lt;br&gt;&lt;br&gt;+ Data: Date" style="text;strokeColor=none;fillColor=none;align=left;verticalAlign=top;spacingLeft=4;spacingRight=4;overflow=hidden;rotatable=0;points=[[0,0.5],[1,0.5]];portConstraint=eastwest;whiteSpace=wrap;html=1;" parent="xtpFS0kODumkPLvUpkfr-81" vertex="1">
          <mxGeometry y="26" width="140" height="54" as="geometry" />
        </mxCell>
        <mxCell id="xtpFS0kODumkPLvUpkfr-85" value="Cronograma" style="swimlane;fontStyle=0;childLayout=stackLayout;horizontal=1;startSize=26;fillColor=none;horizontalStack=0;resizeParent=1;resizeParentMax=0;resizeLast=0;collapsible=1;marginBottom=0;whiteSpace=wrap;html=1;" parent="1" vertex="1">
          <mxGeometry x="1130" y="350" width="140" height="150" as="geometry" />
        </mxCell>
        <mxCell id="xtpFS0kODumkPLvUpkfr-86" value="+ ID: Integer" style="text;strokeColor=none;fillColor=none;align=left;verticalAlign=top;spacingLeft=4;spacingRight=4;overflow=hidden;rotatable=0;points=[[0,0.5],[1,0.5]];portConstraint=eastwest;whiteSpace=wrap;html=1;" parent="xtpFS0kODumkPLvUpkfr-85" vertex="1">
          <mxGeometry y="26" width="140" height="26" as="geometry" />
        </mxCell>
        <mxCell id="xtpFS0kODumkPLvUpkfr-87" value="+ ID_Curso&lt;br&gt;&lt;br&gt;+ Data: Date&lt;br&gt;&lt;br&gt;+ Hora: Time" style="text;strokeColor=none;fillColor=none;align=left;verticalAlign=top;spacingLeft=4;spacingRight=4;overflow=hidden;rotatable=0;points=[[0,0.5],[1,0.5]];portConstraint=eastwest;whiteSpace=wrap;html=1;" parent="xtpFS0kODumkPLvUpkfr-85" vertex="1">
          <mxGeometry y="52" width="140" height="98" as="geometry" />
        </mxCell>
        <mxCell id="xtpFS0kODumkPLvUpkfr-9" value="Administrador" style="swimlane;fontStyle=0;childLayout=stackLayout;horizontal=1;startSize=26;fillColor=none;horizontalStack=0;resizeParent=1;resizeParentMax=0;resizeLast=0;collapsible=1;marginBottom=0;whiteSpace=wrap;html=1;" parent="1" vertex="1">
          <mxGeometry x="260" y="142" width="160" height="52" as="geometry" />
        </mxCell>
        <mxCell id="xtpFS0kODumkPLvUpkfr-10" value="+ CriarContaCoordenador()" style="text;strokeColor=none;fillColor=none;align=left;verticalAlign=top;spacingLeft=4;spacingRight=4;overflow=hidden;rotatable=0;points=[[0,0.5],[1,0.5]];portConstraint=eastwest;whiteSpace=wrap;html=1;" parent="xtpFS0kODumkPLvUpkfr-9" vertex="1">
          <mxGeometry y="26" width="160" height="26" as="geometry" />
        </mxCell>
        <mxCell id="xtpFS0kODumkPLvUpkfr-90" style="edgeStyle=orthogonalEdgeStyle;rounded=0;orthogonalLoop=1;jettySize=auto;html=1;entryX=0.267;entryY=0.994;entryDx=0;entryDy=0;entryPerimeter=0;" parent="1" source="xtpFS0kODumkPLvUpkfr-29" target="xtpFS0kODumkPLvUpkfr-82" edge="1">
          <mxGeometry relative="1" as="geometry">
            <mxPoint x="480" y="150" as="targetPoint" />
            <Array as="points">
              <mxPoint x="330" y="340" />
              <mxPoint x="480" y="340" />
              <mxPoint x="480" y="170" />
            </Array>
          </mxGeometry>
        </mxCell>
        <mxCell id="xtpFS0kODumkPLvUpkfr-91" value="Criar" style="text;align=center;fontStyle=1;verticalAlign=middle;spacingLeft=3;spacingRight=3;strokeColor=none;rotatable=0;points=[[0,0.5],[1,0.5]];portConstraint=eastwest;html=1;" parent="1" vertex="1">
          <mxGeometry x="458" y="227" width="80" height="26" as="geometry" />
        </mxCell>
        <mxCell id="xtpFS0kODumkPLvUpkfr-92" value="1..*" style="text;align=center;fontStyle=1;verticalAlign=middle;spacingLeft=3;spacingRight=3;strokeColor=none;rotatable=0;points=[[0,0.5],[1,0.5]];portConstraint=eastwest;html=1;" parent="1" vertex="1">
          <mxGeometry x="297" y="329" width="35" height="26" as="geometry" />
        </mxCell>
        <mxCell id="xtpFS0kODumkPLvUpkfr-93" value="1..*" style="text;align=center;fontStyle=1;verticalAlign=middle;spacingLeft=3;spacingRight=3;strokeColor=none;rotatable=0;points=[[0,0.5],[1,0.5]];portConstraint=eastwest;html=1;" parent="1" vertex="1">
          <mxGeometry x="505" y="140" width="35" height="26" as="geometry" />
        </mxCell>
        <mxCell id="xtpFS0kODumkPLvUpkfr-94" value="1..*" style="text;align=center;fontStyle=1;verticalAlign=middle;spacingLeft=3;spacingRight=3;strokeColor=none;rotatable=0;points=[[0,0.5],[1,0.5]];portConstraint=eastwest;html=1;" parent="1" vertex="1">
          <mxGeometry x="306" y="199" width="35" height="26" as="geometry" />
        </mxCell>
        <mxCell id="xtpFS0kODumkPLvUpkfr-95" value="1..*" style="text;align=center;fontStyle=1;verticalAlign=middle;spacingLeft=3;spacingRight=3;strokeColor=none;rotatable=0;points=[[0,0.5],[1,0.5]];portConstraint=eastwest;html=1;" parent="1" vertex="1">
          <mxGeometry x="435" y="77" width="35" height="26" as="geometry" />
        </mxCell>
        <mxCell id="xtpFS0kODumkPLvUpkfr-96" value="Editar" style="text;align=center;fontStyle=1;verticalAlign=middle;spacingLeft=3;spacingRight=3;strokeColor=none;rotatable=0;points=[[0,0.5],[1,0.5]];portConstraint=eastwest;html=1;" parent="1" vertex="1">
          <mxGeometry x="442.5" y="142" width="35" height="26" as="geometry" />
        </mxCell>
        <mxCell id="xtpFS0kODumkPLvUpkfr-107" value="1..1" style="text;align=center;fontStyle=1;verticalAlign=middle;spacingLeft=3;spacingRight=3;strokeColor=none;rotatable=0;points=[[0,0.5],[1,0.5]];portConstraint=eastwest;html=1;" parent="1" vertex="1">
          <mxGeometry x="1020" y="392" width="30" height="26" as="geometry" />
        </mxCell>
        <mxCell id="xtpFS0kODumkPLvUpkfr-109" value="1..1" style="text;align=center;fontStyle=1;verticalAlign=middle;spacingLeft=3;spacingRight=3;strokeColor=none;rotatable=0;points=[[0,0.5],[1,0.5]];portConstraint=eastwest;html=1;" parent="1" vertex="1">
          <mxGeometry x="1098" y="392" width="30" height="26" as="geometry" />
        </mxCell>
        <mxCell id="xtpFS0kODumkPLvUpkfr-111" value="Tem" style="text;align=center;fontStyle=1;verticalAlign=middle;spacingLeft=3;spacingRight=3;strokeColor=none;rotatable=0;points=[[0,0.5],[1,0.5]];portConstraint=eastwest;html=1;" parent="1" vertex="1">
          <mxGeometry x="1032" y="411" width="80" height="26" as="geometry" />
        </mxCell>
        <mxCell id="1XzLSSR2Dj4UtZ3CysoS-1" value="Formador_ufcd" style="swimlane;fontStyle=0;childLayout=stackLayout;horizontal=1;startSize=26;fillColor=none;horizontalStack=0;resizeParent=1;resizeParentMax=0;resizeLast=0;collapsible=1;marginBottom=0;whiteSpace=wrap;html=1;" vertex="1" parent="1">
          <mxGeometry x="400" y="650" width="140" height="52" as="geometry" />
        </mxCell>
        <mxCell id="1XzLSSR2Dj4UtZ3CysoS-5" style="edgeStyle=orthogonalEdgeStyle;rounded=0;orthogonalLoop=1;jettySize=auto;html=1;endArrow=none;endFill=0;dashed=1;" edge="1" parent="1" source="1XzLSSR2Dj4UtZ3CysoS-1">
          <mxGeometry relative="1" as="geometry">
            <mxPoint x="470" y="390" as="targetPoint" />
          </mxGeometry>
        </mxCell>
        <mxCell id="1XzLSSR2Dj4UtZ3CysoS-16" style="edgeStyle=orthogonalEdgeStyle;rounded=0;orthogonalLoop=1;jettySize=auto;html=1;endArrow=none;endFill=0;dashed=1;" edge="1" parent="1" source="1XzLSSR2Dj4UtZ3CysoS-6">
          <mxGeometry relative="1" as="geometry">
            <mxPoint x="480" y="220" as="targetPoint" />
            <Array as="points">
              <mxPoint x="769" y="210" />
              <mxPoint x="481" y="210" />
            </Array>
          </mxGeometry>
        </mxCell>
        <mxCell id="1XzLSSR2Dj4UtZ3CysoS-6" value="Formador_disponivilidade" style="swimlane;fontStyle=0;childLayout=stackLayout;horizontal=1;startSize=26;fillColor=none;horizontalStack=0;resizeParent=1;resizeParentMax=0;resizeLast=0;collapsible=1;marginBottom=0;whiteSpace=wrap;html=1;" vertex="1" parent="1">
          <mxGeometry x="687" y="90" width="163" height="52" as="geometry" />
        </mxCell>
        <mxCell id="1XzLSSR2Dj4UtZ3CysoS-15" style="edgeStyle=orthogonalEdgeStyle;rounded=0;orthogonalLoop=1;jettySize=auto;html=1;endArrow=none;endFill=0;dashed=1;" edge="1" parent="1" source="1XzLSSR2Dj4UtZ3CysoS-11">
          <mxGeometry relative="1" as="geometry">
            <mxPoint x="440" y="120" as="targetPoint" />
          </mxGeometry>
        </mxCell>
        <mxCell id="1XzLSSR2Dj4UtZ3CysoS-11" value="Coordenador_disponibilidade" style="swimlane;fontStyle=0;childLayout=stackLayout;horizontal=1;startSize=26;fillColor=none;horizontalStack=0;resizeParent=1;resizeParentMax=0;resizeLast=0;collapsible=1;marginBottom=0;whiteSpace=wrap;html=1;" vertex="1" parent="1">
          <mxGeometry x="126" y="77" width="180" height="52" as="geometry" />
        </mxCell>
      </root>
    </mxGraphModel>
  </diagram>
</mxfile>
